<svg width="137" height="137" viewBox="0 0 137 137" fill="none" xmlns="http://www.w3.org/2000/svg">
<g clip-path="url(#clip0_1799_1190)">
<path d="M68.5 137C30.743 137 0 106.257 0 68.5C0 30.743 30.743 0 68.5 0C106.257 0 137 30.743 137 68.5C137 106.257 106.257 137 68.5 137Z" fill="#C8102E"/>
<path d="M68.5009 133.858C32.4747 133.858 3.14355 104.527 3.14355 68.5009C3.14355 32.4747 32.4747 3.14355 68.5009 3.14355C104.527 3.14355 133.858 32.4747 133.858 68.5009C133.858 104.527 104.527 133.858 68.5009 133.858Z" fill="white"/>
<path d="M68.5003 130.67C56.2044 130.67 44.1846 127.023 33.9609 120.192C23.7373 113.361 15.7689 103.651 11.0634 92.2914C6.35799 80.9315 5.12683 68.4313 7.52565 56.3717C9.92446 44.312 15.8455 33.2345 24.54 24.54C33.2345 15.8455 44.312 9.92446 56.3717 7.52565C68.4313 5.12683 80.9315 6.35799 92.2914 11.0634C103.651 15.7689 113.361 23.7373 120.192 33.9609C127.023 44.1846 130.67 56.2044 130.67 68.5003C130.656 84.9845 124.102 100.79 112.446 112.446C100.79 124.102 84.9845 130.656 68.5003 130.67Z" fill="#C8102E"/>
<path d="M110.994 68.5005C110.994 76.905 108.502 85.1207 103.833 92.1087C99.1635 99.0968 92.5269 104.543 84.7622 107.76C76.9975 110.976 68.4534 111.817 60.2104 110.178C51.9675 108.538 44.3958 104.491 38.453 98.5481C32.5101 92.6052 28.463 85.0336 26.8234 76.7906C25.1837 68.5477 26.0252 60.0036 29.2415 52.2389C32.4577 44.4742 37.9043 37.8376 44.8923 33.1683C51.8804 28.499 60.0961 26.0068 68.5005 26.0068C74.0814 26.0052 79.6078 27.1032 84.7642 29.2381C89.9205 31.373 94.6056 34.503 98.5519 38.4492C102.498 42.3955 105.628 47.0806 107.763 52.2369C109.898 57.3932 110.996 62.9197 110.994 68.5005Z" fill="white"/>
<path d="M68.4997 29.1036C62.3294 29.0876 56.2417 30.5219 50.7275 33.2908C45.2133 36.0598 40.427 40.0859 36.7547 45.0445C37.8023 45.3633 39.8062 45.9098 42.2657 46.6386C46.137 47.7772 59.0263 51.5574 61.4402 52.3317C68.4542 54.609 70.3215 55.4743 72.28 57.5694C74.2384 59.71 77.2444 62.1239 80.2049 64.1735C83.1653 66.223 84.5772 68.4547 84.5772 72.0072C84.5772 75.5598 81.8445 78.5657 80.1593 79.5677C80.1593 79.5677 80.7514 77.8826 79.9316 77.1083C79.1118 76.334 76.5157 74.9221 69.9116 75.3776C63.3076 75.8786 54.4263 79.0667 48.4143 82.3005C48.4143 82.3005 51.2836 77.7915 55.5649 75.7419C55.5649 75.7419 52.0124 75.7419 32.2002 84.3955C35.0324 90.9609 39.5892 96.637 45.387 100.822C51.1848 105.006 58.0073 107.543 65.1306 108.163C72.2538 108.783 79.4121 107.463 85.8457 104.344C92.2794 101.224 97.7485 96.4204 101.673 90.4432C105.597 84.466 107.829 77.538 108.134 70.3943C108.438 63.2506 106.803 56.1577 103.402 49.8683C100 43.5789 94.9598 38.3277 88.8149 34.6718C82.6699 31.0159 75.6499 29.0918 68.4997 29.1036ZM68.4997 99.6076C64.3903 99.6146 60.3214 98.7958 56.5346 97.1997C52.7479 95.6036 49.3204 93.2628 46.4558 90.3164C62.4422 82.0727 72.4166 84.2134 72.4166 85.8074C72.4166 87.4471 69.9572 91.2729 69.9572 91.2729C82.9831 89.4511 92.5021 81.5717 92.5021 71.0052C92.5021 60.3932 82.5732 55.2921 80.0682 53.7436C77.3811 52.0584 78.6563 49.7812 69.775 46.4564C64.3551 44.4068 56.7946 42.4029 53.8342 41.6741C57.9638 39.4261 62.5526 38.1519 67.2501 37.949C71.9475 37.7461 76.6292 38.6198 80.9373 40.5033C85.2453 42.3869 89.0658 45.2304 92.1065 48.8166C95.1473 52.4028 97.328 56.6368 98.4818 61.1948C99.6356 65.7529 99.7322 70.5144 98.7639 75.1155C97.7957 79.7165 95.7884 84.0353 92.8954 87.7418C90.0024 91.4483 86.3004 94.4443 82.0722 96.5008C77.844 98.5574 73.2015 99.6201 68.4997 99.6076Z" fill="#C8102E"/>
<path d="M68.1812 58.4343C66.593 58.4935 65.0142 58.1652 63.5812 57.4779C61.2584 56.3392 57.7058 53.7432 54.6543 56.567C54.6543 56.567 57.2504 56.2482 57.0226 56.9313C56.7949 57.6145 56.5672 61.5769 60.0742 63.0799C63.6722 64.5829 67.7713 63.4443 68.1812 58.4343Z" fill="#C8102E"/>
<path d="M21.953 100.154L22.3629 100.7L28.0561 96.3278L27.6462 95.7813L28.9214 94.7793L30.7432 97.1476C32.1096 98.9239 31.9729 100.245 30.6066 101.292C29.6501 102.021 28.7848 102.067 27.9194 101.611C28.2838 102.795 27.965 103.57 26.8263 104.435C25.3233 105.574 23.8204 105.118 22.5451 103.524L20.6777 101.11L21.953 100.154ZM23.9114 102.704C24.4124 103.342 25.0956 103.478 25.9154 102.841C26.7352 102.203 26.7352 101.566 26.1887 100.928L25.8243 100.472L23.5471 102.249L23.9114 102.704ZM27.3273 99.8804C27.8283 100.518 28.466 100.564 29.1947 100.017C29.9234 99.4705 30.0145 98.8328 29.468 98.1496L29.1947 97.7853L27.0085 99.4704L27.3273 99.8804Z" fill="white"/>
<path d="M28.7396 108.353L29.1495 108.717L36.6189 103.479L38.1219 104.8L33.9317 112.907L34.2961 113.226L33.2485 114.41L30.698 112.179L31.7 111.04L32.3376 111.587L32.8842 110.585L31.3812 109.264L30.4703 109.947L31.1079 110.493L30.1059 111.632L27.6465 109.491L28.7396 108.353ZM33.6585 109.4L35.3892 106.349L32.5654 108.444L33.6585 109.4Z" fill="white"/>
<path d="M38.6228 117.051L38.2584 117.734L37.0742 117.051L38.8049 114.045L40.1257 114.819C39.4881 116.049 39.6247 116.778 40.3535 117.188C41.0367 117.598 41.5376 117.461 41.902 116.823C42.7674 115.32 39.4426 113.043 41.0367 110.401C41.902 108.899 43.405 108.625 44.6347 109.354C45.3634 109.764 45.7734 110.31 45.6823 110.994L46.0466 110.31L47.2308 110.994L45.5912 113.863L44.2248 113.089C44.7258 112.087 44.7258 111.449 44.0882 111.085C43.9791 110.999 43.8524 110.939 43.7172 110.908C43.582 110.878 43.4417 110.878 43.3065 110.909C43.1713 110.939 43.0446 110.999 42.9356 111.085C42.8266 111.171 42.738 111.279 42.6763 111.403C41.8565 112.815 45.0902 115.138 43.5416 117.78C42.5852 119.419 41.0822 119.556 39.7158 118.782C39.0782 118.326 38.5772 117.78 38.6228 117.051Z" fill="white"/>
<path d="M47.8685 120.923L48.5062 121.15L50.7379 114.319L50.1003 114.091L50.5557 112.588L53.6072 113.544L53.1518 115.047L52.5597 114.865L51.5577 118.053L54.2904 115.412L53.9261 115.275L54.3815 113.772L57.1598 114.683L56.6588 116.232L56.0211 116.004L53.835 118.008L54.1538 122.972L54.7003 123.109L54.1993 124.612L51.2389 123.655L51.6943 122.198L52.2409 122.38L52.0132 119.374L50.7379 120.604L50.3735 121.788L50.9201 121.925L50.4646 123.382L47.4131 122.426L47.8685 120.923Z" fill="white"/>
<path d="M60.3476 124.202L61.0308 124.293L61.6684 117.142L60.9852 117.097L61.1218 115.457L67.3615 116.004L67.0427 119.283L65.2665 119.146L65.4031 117.37L63.6268 117.188L63.3991 119.966L64.9932 120.148L64.8565 121.742L63.2625 121.606L62.9892 124.521L64.811 124.703L64.9476 122.699L66.7695 122.881L66.4962 126.342L60.2109 125.796L60.3476 124.202Z" fill="white"/>
<path d="M74.1024 124.476L74.9678 124.339L74.0113 117.143L72.9182 117.28L73.1459 119.056L71.643 119.284L71.1875 116.004L78.3381 115.048L78.7935 118.327L77.2906 118.509L77.0628 116.733L75.9697 116.87L76.9262 124.111L77.7916 123.975L77.9737 125.523L74.2846 126.024L74.1024 124.476Z" fill="white"/>
<path d="M85.3975 122.244L86.0351 122.016L83.4846 115.321L82.847 115.549L82.2549 114.046L85.0787 112.998C87.1738 112.178 88.4035 112.725 88.9956 114.319C89.4055 115.412 89.2233 116.277 88.5401 116.961C89.7698 116.915 90.453 117.507 90.954 118.828C91.6372 120.604 90.7263 121.925 88.8134 122.654L85.944 123.747L85.3975 122.244ZM86.6728 117.006C87.447 116.733 87.6748 116.095 87.3559 115.275C87.0371 114.41 86.4906 114.182 85.6708 114.456L85.2609 114.592L86.2173 117.143L86.6728 117.006ZM88.3579 121.105C89.1322 120.832 89.451 120.194 89.0867 119.238C88.7223 118.281 88.1302 118.099 87.3104 118.418L86.7639 118.646L87.8114 121.333L88.3579 121.105Z" fill="white"/>
<path d="M94.7339 118.372L95.1894 118.099L92.4111 109.445L94.1419 108.397L100.655 114.774L101.065 114.501L101.885 115.821L99.0152 117.598L98.1954 116.322L98.9241 115.867L98.1498 115.047L96.4191 116.095L96.7835 117.188L97.5122 116.732L98.332 118.008L95.5538 119.693L94.7339 118.372ZM97.1478 113.954L94.7339 111.403L95.8726 114.728L97.1478 113.954Z" fill="white"/>
<path d="M104.572 111.722L105.073 111.267L100.154 106.029L99.6527 106.485L98.5596 105.3L101.065 102.978L102.158 104.162L101.611 104.663L106.53 109.946L107.76 108.807L106.393 107.395L107.714 106.12L110.083 108.671L105.619 112.861L104.572 111.722Z" fill="white"/>
<path d="M111.859 104.389L112.224 103.843L106.485 99.6071L106.075 100.108L104.8 99.1517L106.804 96.4189L108.125 97.3754L107.669 98.013L113.499 102.294L114.455 100.973L112.861 99.7893L113.954 98.3318L116.733 100.427L113.089 105.346L111.859 104.389Z" fill="white"/>
<path d="M20.905 55.9297L21.0871 55.3832L13.4355 50.4188L14.1187 48.5059L23.1822 49.3712L23.3644 48.9158L24.8219 49.4168L23.7288 52.6049L22.2713 52.1039L22.5446 51.3297L21.406 51.193L20.7228 53.1059L21.6792 53.698L21.9525 52.8782L23.4099 53.3792L22.3624 56.4307L20.905 55.9297ZM20.0396 50.9653L16.5782 50.5098L19.5386 52.3317L20.0396 50.9653Z" fill="white"/>
<path d="M25.3233 45.0449L25.7788 44.3161L19.5391 40.5814L18.947 41.5379L20.4955 42.4488L19.7213 43.7696L16.8975 42.0844L20.5866 35.8447L23.4104 37.5299L22.6362 38.8507L21.0876 37.9398L20.5411 38.8963L26.7808 42.631L27.2362 41.8567L28.6026 42.6765L26.6897 45.8647L25.3233 45.0449Z" fill="white"/>
<path d="M30.4248 37.3929L30.8803 36.8919L25.6426 32.0186L25.1871 32.474L24.0029 31.381L26.3257 28.876L27.5099 30.0146L27.0089 30.5611L32.2922 35.48L33.4308 34.2959L31.9733 32.9295L33.2031 31.6087L35.7536 33.977L31.609 38.4405L30.4248 37.3929Z" fill="white"/>
<path d="M37.1652 30.5613L37.6207 30.2425L34.2959 21.7711L35.9355 20.5869L42.8129 26.5533L43.2228 26.2801L44.1337 27.5553L41.401 29.5138L40.5356 28.2841L41.2188 27.7831L40.399 27.0088L38.7593 28.1474L39.2148 29.195L39.898 28.694L40.7633 29.9237L38.1217 31.791L37.1652 30.5613ZM39.3514 26.0068L36.8009 23.5929L38.1672 26.8266L39.3514 26.0068Z" fill="white"/>
<path d="M46.5016 24.4575L47.0936 24.2298L44.4065 17.5802L43.7688 17.8079L43.1768 16.3049L45.6362 15.3029L50.0996 19.7208L48.5055 15.895L47.959 16.1227L47.3214 14.6197L50.1907 13.4355L50.8284 14.9385L50.1907 15.2118L53.5155 23.2733L51.8759 23.9565L47.0936 19.3564L48.8244 23.501L49.3709 23.2733L49.963 24.7308L47.0936 25.9149L46.5016 24.4575Z" fill="white"/>
<path d="M58.0703 20.4958L58.9356 20.3591L57.6604 13.163L56.5673 13.3452L56.8861 15.1214L55.3831 15.3947L54.791 12.161L61.9416 10.8857L62.4882 14.1195L60.9852 14.3927L60.6663 12.6165L59.5733 12.7986L60.8485 19.9948L61.7139 19.8581L61.9872 21.3611L58.3435 22.0443L58.0703 20.4958Z" fill="white"/>
<path d="M65.7672 19.3576H66.3138L68.6366 10.5674L70.6406 10.6129L72.6446 19.4942H73.1456L73.1 21.0428L69.7297 20.9972L69.7752 19.4942H70.595L70.4128 18.3556L68.4088 18.3101L68.1356 19.4032H69.0009L68.9554 20.9061L65.7217 20.8606L65.7672 19.3576ZM70.1851 16.9893L69.5475 13.5278L68.7277 16.9437L70.1851 16.9893Z" fill="white"/>
<path d="M80.6612 20.8143L81.2988 20.9964L83.6216 14.2102L82.984 14.028L83.5305 12.4795L86.7187 13.5726L86.1721 15.03L85.5345 14.8023L84.6691 17.3073L86.7642 18.036L87.6296 15.531L86.9464 15.3033L87.4474 13.8003L90.6356 14.8934L90.1346 16.4419L89.4514 16.2142L87.1741 23.0004L87.8118 23.2282L87.3108 24.6856L84.1226 23.5925L84.6236 22.1806L85.3068 22.4083L86.2177 19.6756L84.1226 18.9469L83.1661 21.6796L83.8493 21.9074L83.3483 23.3648L80.1602 22.2717L80.6612 20.8143Z" fill="white"/>
<path d="M91.1818 24.8228L91.6372 25.0961L98.1502 18.7197L99.8809 19.7673L97.0571 28.4209L97.467 28.6941L96.6472 30.0149L93.7778 28.2387L94.5977 26.9634L95.3264 27.4189L95.7363 26.3713L94.0056 25.3238L93.1858 26.1436L93.9145 26.5991L93.0947 27.8743L90.3164 26.1436L91.1818 24.8228ZM96.1917 25.0505L97.4215 21.7713L94.962 24.2762L96.1917 25.0505Z" fill="white"/>
<path d="M104.799 25.3236L104.344 24.8681L105.482 23.7295L107.76 25.9612L106.667 27.0998L106.211 26.6444L103.433 30.4246L108.58 26.781L109.764 27.9652L106.211 33.2029L109.946 30.3335L109.536 29.9236L110.629 28.785L112.77 30.9256L111.631 32.0643L111.176 31.6088L103.934 36.801L102.659 35.5257L106.348 30.1058L100.974 33.8861L99.6982 32.6108L104.799 25.3236Z" fill="white"/>
<path d="M108.034 39.2142L108.398 39.7608L114.456 35.935L114.091 35.3884L115.458 34.4775L117.188 37.2103L115.822 38.0301L115.503 37.5291L112.679 39.3509L116.46 39.0776L116.277 38.7132L117.598 37.8934L119.147 40.3529L117.78 41.2182L117.416 40.6261L114.456 40.7628L111.586 44.7708L111.86 45.2718L110.539 46.0916L108.854 43.4499L110.129 42.6301L110.448 43.1311L112.224 40.6261L110.448 40.8083L109.4 41.446L109.719 41.947L108.444 42.7668L106.713 40.0341L108.034 39.2142Z" fill="white"/>
<path d="M112.998 49.7358L112.27 50.0091L111.769 48.7338L115.002 47.5041L115.549 48.916C114.274 49.4625 113.955 50.1457 114.228 50.92C114.501 51.6487 115.002 51.8764 115.64 51.6032C117.28 50.9655 116.095 47.1397 118.965 46.0466C120.559 45.409 121.925 46.1377 122.426 47.4585C122.699 48.2328 122.745 48.916 122.244 49.3714L122.973 49.0982L123.474 50.3734L120.377 51.5576L119.83 50.1002C120.832 49.6447 121.242 49.1437 120.969 48.415C120.937 48.2831 120.876 48.1597 120.792 48.0535C120.707 47.9473 120.6 47.8608 120.479 47.8001C120.358 47.7394 120.224 47.7059 120.089 47.702C119.953 47.6981 119.818 47.7238 119.693 47.7774C118.19 48.3694 119.238 52.1952 116.414 53.2883C114.638 53.9715 113.363 53.1061 112.816 51.6487C112.588 51.0111 112.543 50.2368 112.998 49.7358Z" fill="white"/>
</g>
<defs>
<clipPath id="clip0_1799_1190">
<rect width="137" height="137" fill="white"/>
</clipPath>
</defs>
</svg>
