<svg width="137" height="118" viewBox="0 0 137 118" fill="none" xmlns="http://www.w3.org/2000/svg">
<g clip-path="url(#clip0_1799_1185)">
<path d="M136.61 23.4056V13.3747L134.162 10.8949C102.662 -19.07 35.1965 20.27 12.3028 39.228L0.991968 56.8262L15.0545 53.3386C-6.55926 80.3918 1.16795 98.166 2.07986 100.006C4.35162 106.405 9.55109 111.525 17.9662 114.884C24.3656 117.444 31.6128 117.748 37.8362 117.46C64.6974 116.212 96.4542 99.4619 116.964 81.5917L117.444 81.1757L121.588 60.6338L113.588 65.0654C97.2953 72.2487 80.6276 78.5505 63.6575 83.9434C49.083 88.487 42.3957 89.2229 37.6282 88.119L37.0043 87.991C36.5695 87.8486 36.1861 87.5817 35.9017 87.2233C35.6173 86.865 35.4444 86.431 35.4044 85.9752C35.1805 76.8562 50.8589 57.1782 58.762 48.779C66.1213 40.8759 77.6881 32.2047 87.4791 28.0772C94.0384 25.3254 98.262 24.2216 100.278 24.4295C99.5489 26.6339 98.6393 28.7743 97.5581 30.8289C97.5581 30.8289 89.9429 45.8513 87.4151 50.8108C87.3686 50.9082 87.354 51.0178 87.3734 51.124C87.3929 51.2302 87.4454 51.3275 87.5235 51.402C87.6016 51.4765 87.7012 51.5244 87.8082 51.539C87.9151 51.5535 88.0239 51.5338 88.119 51.4828L136.61 23.4056Z" fill="#FCB831"/>
<path d="M74.409 21.9344C65.3699 26.7339 55.0189 36.3329 51.7713 39.7405C25.358 67.8817 6.84788 105.478 64.698 87.4636C81.8292 82.0244 98.6523 75.6584 115.093 68.3936C36.0769 135.139 -38.5075 107.19 34.893 37.0528C28.2057 38.5727 21.4704 40.0285 14.8631 41.8523C38.3966 22.3983 102.822 -13.854 131.603 13.5352L100.79 32.3813C113.989 6.51194 90.2153 12.5913 74.345 21.9344" fill="#86003A"/>
</g>
<defs>
<clipPath id="clip0_1799_1185">
<rect width="136.61" height="117.556" fill="white"/>
</clipPath>
</defs>
</svg>
