<svg width="169" height="137" viewBox="0 0 169 137" fill="none" xmlns="http://www.w3.org/2000/svg">
<g clip-path="url(#clip0_1791_227)">
<path d="M83.8851 136.262L72.7957 121.861C58.6875 117.205 48.8677 104.454 47.9595 89.6216L40.2715 82.1726C33.7307 84.9908 27.9872 87.9754 27.9872 87.9754L7.35729 67.2689L16.0529 48.2068L0.50293 28.0128H25.2417L30.0311 17.5831L42.2791 12.6407L43.6385 8.94484L53.5653 13.48L55.9266 5.22993L57.546 4.6908C65.3984 2.07525 74.4477 0.666103 83.7111 0.614481C83.9768 0.597273 86.9212 0.648906 86.9901 0.648906C87.3361 0.648906 88.7816 0.727268 88.7816 0.727268C96.6187 1.10583 103.98 2.40981 110.664 4.60473L112.306 5.1458L114.48 13.0135L118.054 10.3138L138.119 17.4473L142.961 28.0166H167.824L152.107 48.2928L160.671 67.0816L139.718 88.656C139.718 88.656 132.114 83.8915 126.849 81.8017L120.453 89.1073C119.732 104.294 109.398 117.614 94.875 122.087L83.8851 136.262Z" fill="white"/>
<path d="M83.7161 3.78027L83.6384 10.6454L84.8812 11.9151L85.2935 11.9449L85.3144 14.9025L87.3698 14.9622L87.313 12.0106L87.6984 11.9897L88.8605 10.8306L88.6126 3.92664C88.0447 3.87884 86.7783 3.83701 86.7783 3.83701L86.85 9.95526L85.6461 9.96422L85.6281 3.81018C85.6281 3.81018 84.3815 3.78027 83.7161 3.78027ZM80.0536 3.9416C79.3595 3.98366 78.946 3.97207 78.1507 4.05811L77.4725 12.6142L76.1431 12.7337L76.9198 4.14181L75.0556 4.32404L73.998 12.9786L72.6447 13.128L73.6635 4.49131L71.7725 4.75121L70.3325 14.532L71.4289 15.5776L73.9294 15.3446L75.0079 14.4274L75.8593 15.1683L78.1567 15.0309L79.4951 13.6985L80.0536 3.9416ZM91.2743 4.1089C90.9034 4.51041 90.429 4.82983 90.1211 5.23516C90.297 8.1089 90.4428 10.9915 90.6589 13.848L91.8747 15.1714L95.2445 15.3984L96.2871 13.8062C96.0042 11.1925 95.5413 8.50822 95.3043 5.70729L94.0821 4.38376L91.2743 4.1089ZM96.8817 4.74223L98.3694 15.7181L100.61 15.9959L100.132 12.7725L101.479 12.9219L102.092 16.2289L104.338 16.6173L103.659 12.6493L102.873 11.7112L103.318 11.0928L102.547 7.09868L101.161 5.49738L96.8801 4.74147L96.8817 4.74223ZM70.3973 4.95132L65.9891 5.84749C65.5494 8.37891 63.7784 16.5813 63.7784 16.5813C65.3597 16.306 67.0167 16.07 68.6629 15.8673C68.7815 15.1867 69.0155 13.6626 69.0155 13.6626L66.6613 14.0062L67.0945 11.7447L69.3888 11.4161C69.5418 10.5825 69.5838 10.2821 69.7234 9.4026C68.7261 9.53445 68.2137 9.61582 67.374 9.76695L67.7893 7.40393L70.0746 6.97374L70.3973 4.95132ZM104.075 6.15814C104.075 6.15814 105.549 13.3414 106.364 16.9876L108.7 17.4447L107.917 14.0599L109.354 14.3825L110.253 17.7823L112.559 18.2991L111.158 13.4506L110.235 12.4349L110.734 11.7179L109.671 7.73566C108.615 7.41636 107.624 7.13818 107.624 7.13818L108.622 11.2489L108.237 11.7806L107.436 11.6193C107.436 11.6189 106.615 8.31363 106.197 6.70759C105.259 6.40551 104.075 6.15814 104.075 6.15814ZM92.1643 6.17906L93.3145 6.30752L93.9448 12.9516L92.7618 12.859L92.1643 6.17906ZM64.2498 6.21789C63.508 6.38423 62.0332 6.77654 62.0332 6.77654L61.4686 8.96029C61.4686 8.96029 60.8413 7.77464 60.5813 7.18569C59.8739 7.39792 59.2774 7.57931 58.4782 7.8489C57.5069 11.3345 56.5139 14.8212 55.5445 18.3048L57.874 17.7725L59.7477 11.3381L60.488 12.9425L59.3944 17.4146L61.779 16.945L64.2498 6.21789ZM99.3105 7.23658L100.442 7.44567L100.975 10.1672L99.7081 10.0208L99.3105 7.23658ZM7.01367 31.2186L83.8864 131L161.273 31.2216L7.01673 31.2186H7.01367Z" fill="#1D428A"/>
<path d="M155.373 34.1067L83.8947 126.269L12.8887 34.1048L155.373 34.1067Z" fill="#9EA2A2"/>
<path d="M145.068 40.5307L145.043 40.4695L144.989 40.4351L140.414 37.3606L142.118 34.1065L142.169 34.0071L142.123 33.9039L135.827 20.1072L135.785 20.0231L135.697 19.9906L118.729 13.9469L118.612 13.9049L118.511 13.9813L114.01 17.4152L113.964 17.4515L113.941 17.5089L113.169 19.3979C113.169 19.3979 106.135 17.6313 95.8026 16.5988C94.7491 16.4937 91.9385 16.2623 87.4492 15.9086L87.0133 15.8742L86.5602 15.8398L86.455 15.8321L86.3804 15.9067L83.0269 19.2468L83.0307 15.8168C83.0307 15.8168 73.5187 16.3541 67.2896 17.2011C61.0624 18.05 54.9346 19.591 54.9346 19.591L53.8084 17.1781L53.7721 17.1017L53.6976 17.0672L45.6903 13.402L45.4647 13.3007L45.3805 13.532L44.4475 16.0673L44.2372 15.5587L44.1493 15.3503L43.9389 15.4363L32.4806 20.0288L32.3965 20.0652L32.3563 20.1493L11.2197 66.5868L28.5745 83.9664L29.3833 83.5075C29.9052 83.2093 30.6451 82.7695 31.4826 82.2801C33.5819 81.0411 36.4575 79.349 37.8303 78.6856L38.1113 78.5517C39.8875 77.6933 40.7804 77.2593 49.2159 73.6495L49.9214 73.3857C49.9291 73.3837 50.8679 73.0185 52.6058 72.443C57.2385 70.902 69.2723 67.321 80.9352 67.321H81.0671C81.5337 67.321 81.9963 67.3286 82.4629 67.342C90.3841 67.5599 99.6437 69.2444 106.014 70.6152C112.146 71.9383 116.759 73.2079 118.071 73.5769L118.952 73.8484C124.753 76.0892 131.849 79.7926 138.418 84.0008L139.254 84.5381L156.821 66.4472L145.068 40.5307Z" fill="#1D428A"/>
<path d="M83.4919 48.6963L83.5427 55.5285L86.3539 55.6301L86.4166 51.7345L83.4919 48.6963ZM87.6205 52.2244C87.5631 53.3677 87.5625 54.9762 87.4861 55.8213C89.4574 56.0526 91.5675 56.6993 93.4221 57.2194C95.1008 57.6247 96.9063 58.3452 98.3842 59.0029L99.1968 53.1206C95.2995 52.6404 91.6096 52.3483 87.6205 52.2244ZM79.19 52.2334C76.5304 52.3233 73.8887 52.4897 71.2674 52.7383C71.4949 54.2296 71.8358 56.4586 72.071 58.0111C72.071 58.0111 74.4947 56.5916 79.3454 56.0544L79.19 52.2334ZM66.4665 53.276C63.8797 53.6182 61.316 54.0434 58.777 54.5367C59.7501 57.7011 60.9902 61.9482 61.9615 65.145C64.2194 63.4643 65.5777 61.7377 67.9543 60.2905C67.5031 58.1529 66.9044 55.3868 66.4665 53.276ZM101.734 53.4284L100.35 60.186C102.553 61.4612 104.269 62.9026 106.239 64.8164L106.624 65.1122L109.728 54.8474C107.055 54.2949 104.46 53.8127 101.734 53.4284ZM52.985 55.7944C50.0806 56.4961 47.5544 57.2347 44.7247 58.1276C46.5143 62.3817 48.5167 66.7651 50.6428 70.8452C52.5738 70.1339 55.2677 69.1622 57.7856 68.491L52.985 55.7944ZM115.18 56.0992L110.14 69.1064L117.534 70.8451L123.757 58.5428C120.889 57.6078 118.121 56.8353 115.18 56.0992ZM39.9868 59.6871C36.855 60.8055 34.0053 61.9629 30.9767 63.3107L39.488 75.4158C39.9143 75.0487 44.1128 73.2362 46.9863 72.0221C44.8029 68.0681 42.176 63.7098 39.9868 59.6871ZM128.268 60.1113L121.451 72.3687C127.342 74.6554 135.579 79.2707 138.856 81.4714C140.366 80.026 148.562 71.4233 149.688 70.2417C142.874 66.2437 135.716 62.8454 128.268 60.1113ZM23.5149 66.8689C21.6489 67.8363 19.8076 68.8516 17.9912 69.907L29.0178 80.9694C30.3543 80.1664 31.7704 79.3475 33.3287 78.445L23.5149 66.8689Z" fill="#9EA2A2"/>
<path d="M84.1915 54.2772C65.9094 54.2791 51.0918 69.0986 51.0918 87.3807C51.0918 105.659 65.9094 120.477 84.1915 120.477C102.472 120.477 117.291 105.659 117.291 87.3807C117.291 69.0986 102.472 54.2791 84.1915 54.2772Z" fill="#1D428A"/>
<path d="M46.7708 16.5372L42.1282 29.7416L34.6866 36.1497L41.4681 19.0293L34.1788 21.939L14.085 66.024L17.2278 69.1757C19.092 68.0878 20.9831 67.0439 22.9009 66.0479L29.3059 49.7749L34.9283 44.75L36.2726 46.3153L30.719 62.2885C33.7551 60.9502 36.8465 59.7248 39.986 58.6141L44.013 45.4425L40.5386 39.7067L47.7323 32.8685L51.9386 18.8574L46.7708 16.5372ZM118.998 16.6089L116.244 18.7359L121.233 34.9431L137.287 46.2864L141.401 56.5422L134.724 53.5308L132.433 47.1467L124.244 44.7358L128.624 59.1591C129.974 59.6562 131.313 60.1704 132.642 60.7097C136.286 62.1838 139.857 63.8173 143.346 65.603C145.764 66.8401 148.14 68.1511 150.477 69.5316L153.966 65.9527L143.164 42.1374L126.285 30.8688L123.348 22.6236L128.573 24.4817L130.688 29.6349L138.635 32.1832L133.998 21.9364L118.998 16.6089ZM87.4097 18.3237L83.762 21.9654L83.7501 47.2904L87.5799 51.2099C91.53 51.3322 95.4405 51.6276 99.3026 52.0941L98.511 44.8676L91.3561 44.4434L90.206 24.1889L96.2704 24.4847L95.5594 18.9071L87.4097 18.3237ZM80.2279 18.3387L74.0649 18.6613L71.17 51.732C73.7874 51.4834 76.4261 51.314 79.0837 51.2241L80.2279 18.3387ZM70.4441 19.0975L64.7202 19.931L62.844 30.7902L60.717 20.5703L53.9894 22.2553L44.6268 57.0712C47.3265 56.228 50.0566 55.4699 52.8213 54.8007L57.9656 31.3907L60.5498 43.9619L58.8798 53.4888C61.3788 53.0089 63.9003 52.5975 66.447 52.2609L66.462 52.2579L70.4441 19.0975ZM97.5816 19.1483C97.5816 19.1483 100.504 41.4447 101.88 52.4284C104.517 52.8013 107.128 53.2581 109.716 53.7877L107.697 43.039L109.71 40.3205L112.653 42.7403L115.36 55.0724C118.201 55.7856 121.008 56.5925 123.778 57.4893L118.727 39.4022L113.52 35.1451L116.484 31.1898L114.019 22.0094L107.737 20.6143L110.207 29.8544L106.294 35.0853L103.399 19.8853L97.5794 19.1474L97.5816 19.1483ZM83.3256 56.7357C80.4623 56.7989 77.6991 57.1443 75.0892 58.095C76.2077 58.8158 77.1547 59.0673 78.8085 60.0577C81.2329 58.9316 83.6794 57.6389 86.2203 56.7535C85.2447 56.7239 84.2801 56.7146 83.3256 56.7357ZM89.3632 57.1868C86.35 57.9573 80.5085 60.7389 80.5085 60.7389C90.4335 63.5169 102.13 62.9503 109.931 70.8065C105.323 63.4225 97.4753 58.5692 89.3632 57.1868ZM73.1652 58.7342C70.2705 59.9158 67.1745 61.4564 65.0484 63.4066C68.3351 63.789 69.7429 63.9937 72.4273 64.7241C74.0315 63.2977 75.5839 62.0479 77.515 60.8911L73.1652 58.7342ZM78.9518 61.3931C77.1011 62.5269 75.2966 63.8636 73.7538 65.2499C90.7089 70.5651 106.096 87.1455 109.761 104.281C112.423 100.44 114.027 95.9832 114.675 91.253C115.088 83.9856 115.018 77.3724 108.127 71.0613C99.9382 63.8359 88.5254 64.76 78.9518 61.3931ZM63.3901 64.7509C60.3768 67.4085 57.5329 71.4749 56.1754 74.8993C59.0186 72.0084 62.5584 69.6862 67.0497 70.6899L67.0855 70.7018C68.3646 68.897 69.5865 67.349 71.2232 65.7756C68.1832 64.8273 66.1662 64.8714 63.3901 64.7509ZM72.6213 66.3074C71.0841 67.8102 69.7168 69.4277 68.5046 71.135L68.5106 71.1798C74.1967 73.6482 75.6891 79.7324 77.8343 87.7985C80.6316 98.3104 83.2389 108.977 91.1582 117.189C95.613 116.128 100.256 114.164 104.47 110.375C105.77 109.075 107.711 107.259 108.518 105.953C105.751 88.6754 89.5811 71.0919 72.6213 66.3074ZM65.1826 71.9267C60.7294 71.842 57.3608 75.1472 54.7026 78.8575C51.244 91.0366 55.8394 103.581 63.5484 110.054C57.5831 97.6458 58.5947 83.4859 66.0878 71.9882C65.7811 71.9515 65.4794 71.9324 65.1826 71.9267ZM67.5815 72.4047C59.6049 83.689 58.852 101.055 66.8287 112.696C73.27 116.773 81.3477 119.217 89.4998 117.563C79.0415 105.472 78.1467 92.1798 74.1094 80.1758C73.5817 78.608 71.4666 73.5213 67.5815 72.4047Z" fill="#F58426"/>
</g>
<defs>
<clipPath id="clip0_1791_227">
<rect width="168.669" height="137" fill="white"/>
</clipPath>
</defs>
</svg>
