<svg width="168" height="136" viewBox="0 0 168 136" fill="none" xmlns="http://www.w3.org/2000/svg">
<path d="M83.3821 135.651L72.2928 121.25C58.1845 116.594 48.3647 103.844 47.4566 89.0106L39.7686 81.5617C33.2278 84.3799 27.4843 87.3644 27.4843 87.3644L6.85436 66.658L15.5499 47.5958L0 27.4018H24.7388L29.5282 16.9721L41.7762 12.0297L43.1356 8.33389L53.0624 12.869L55.4237 4.61897L57.0431 4.07983C64.8955 1.46428 73.9447 0.0551453 83.2082 0.00352478C83.4739 -0.0136871 86.4183 0.0379486 86.4871 0.0379486C86.8332 0.0379486 88.2787 0.116302 88.2787 0.116302C96.1158 0.494873 103.477 1.79886 110.161 3.99377L111.803 4.53484L113.977 12.4026L117.551 9.70284L137.617 16.8364L142.458 27.4056H167.321L151.604 47.6819L160.168 66.4706L139.215 88.0451C139.215 88.0451 131.611 83.2805 126.346 81.1907L119.95 88.4963C119.229 103.683 108.895 117.003 94.372 121.476L83.3821 135.651Z" fill="white"/>
<path d="M83.2132 3.16931L83.1355 10.0344L84.3783 11.3041L84.7905 11.334L84.8115 14.2915L86.8669 14.3513L86.8101 11.3997L87.1955 11.3788L88.3576 10.2197L88.1096 3.31567C87.5418 3.26787 86.2754 3.22605 86.2754 3.22605L86.3471 9.3443L85.1431 9.35326L85.1252 3.19922C85.1252 3.19922 83.8785 3.16931 83.2132 3.16931ZM79.5507 3.33063C78.8566 3.3727 78.443 3.36111 77.6477 3.44714L76.9696 12.0032L75.6402 12.1227L76.4169 3.53085L74.5527 3.71308L73.4951 12.3676L72.1418 12.517L73.1605 3.88035L71.2695 4.14025L69.8296 13.921L70.926 14.9666L73.4265 14.7336L74.505 13.8165L75.3564 14.5574L77.6538 14.4199L78.9921 13.0876L79.5507 3.33063ZM90.7714 3.49794C90.4004 3.89945 89.926 4.21887 89.6182 4.6242C89.7941 7.49794 89.9399 10.3806 90.1559 13.237L91.3718 14.5604L94.7416 14.7875L95.7842 13.1952C95.5012 10.5815 95.0384 7.89726 94.8013 5.09633L93.5792 3.7728L90.7714 3.49794ZM96.3787 4.13127L97.8665 15.1071L100.107 15.3849L99.629 12.1615L100.976 12.3109L101.589 15.618L103.835 16.0063L103.156 12.0383L102.37 11.1003L102.815 10.4819L102.044 6.48772L100.658 4.88642L96.3772 4.13051L96.3787 4.13127ZM69.8944 4.34036L65.4862 5.23653C65.0464 7.76795 63.2755 15.9704 63.2755 15.9704C64.8568 15.6951 66.5137 15.459 68.16 15.2564C68.2785 14.5757 68.5125 13.0517 68.5125 13.0517L66.1584 13.3952L66.5916 11.1338L68.8859 10.8052C69.0388 9.97155 69.0809 9.67112 69.2205 8.79164C68.2232 8.92349 67.7108 9.00486 66.8711 9.15598L67.2863 6.79296L69.5716 6.36278L69.8944 4.34036ZM103.572 5.54718C103.572 5.54718 105.046 12.7305 105.861 16.3766L108.197 16.8337L107.414 13.4489L108.851 13.7716L109.75 17.1713L112.056 17.6882L110.655 12.8396L109.732 11.8239L110.231 11.1069L109.168 7.1247C108.112 6.8054 107.121 6.52722 107.121 6.52722L108.119 10.6379L107.734 11.1697L106.933 11.0084C106.933 11.0079 106.112 7.70267 105.694 6.09663C104.756 5.79454 103.572 5.54718 103.572 5.54718ZM91.6614 5.56809L92.8116 5.69655L93.4419 12.3407L92.2589 12.2481L91.6614 5.56809ZM63.7469 5.60693C63.0051 5.77327 61.5303 6.16557 61.5303 6.16557L60.9657 8.34933C60.9657 8.34933 60.3384 7.16367 60.0784 6.57473C59.371 6.78696 58.7744 6.96835 57.9752 7.23793C57.004 10.7235 56.011 14.2103 55.0415 17.6939L57.3711 17.1616L59.2448 10.7272L59.9851 12.3315L58.8914 16.8037L61.276 16.3341L63.7469 5.60693ZM98.8075 6.62562L99.9394 6.83471L100.472 9.55626L99.2052 9.40988L98.8075 6.62562ZM6.51074 30.6076L83.3834 130.389L160.77 30.6107L6.5138 30.6076H6.51074Z" fill="#1D428A"/>
<path d="M154.87 33.4958L83.3918 125.658L12.3857 33.4939L154.87 33.4958Z" fill="#9EA2A2"/>
<path d="M144.565 39.9197L144.54 39.8585L144.486 39.8241L139.911 36.7497L141.615 33.4956L141.666 33.3961L141.62 33.2929L135.324 19.4963L135.282 19.4121L135.194 19.3796L118.226 13.3359L118.109 13.2939L118.008 13.3704L113.507 16.8043L113.461 16.8405L113.438 16.8979L112.666 18.7869C112.666 18.7869 105.632 17.0203 95.2996 15.9878C94.2461 15.8827 91.4356 15.6513 86.9463 15.2976L86.5104 15.2632L86.0573 15.2288L85.9521 15.2212L85.8775 15.2957L82.524 18.6359L82.5278 15.2059C82.5278 15.2059 73.0158 15.7431 66.7867 16.5901C60.5594 17.439 54.4317 18.9801 54.4317 18.9801L53.3055 16.5671L53.2692 16.4907L53.1946 16.4563L45.1874 12.7911L44.9618 12.6897L44.8776 12.9211L43.9446 15.4563L43.7343 14.9477L43.6463 14.7393L43.436 14.8254L31.9777 19.4178L31.8936 19.4542L31.8534 19.5383L10.7168 65.9758L28.0716 83.3554L28.8803 82.8966C29.4023 82.5983 30.1422 82.1586 30.9796 81.6691C33.079 80.4302 35.9546 78.7381 37.3273 78.0746L37.6084 77.9408C39.3846 77.0823 40.2775 76.6483 48.713 73.0385L49.4185 72.7747C49.4262 72.7728 50.3649 72.4076 52.1029 71.8321C56.7356 70.291 68.7694 66.71 80.4323 66.71H80.5642C81.0307 66.71 81.4934 66.7176 81.9599 66.731C89.8811 66.949 99.1407 68.6334 105.511 70.0043C111.643 71.3273 116.257 72.5969 117.568 72.9659L118.45 73.2374C124.25 75.4782 131.346 79.1816 137.915 83.3899L138.751 83.9271L156.318 65.8362L144.565 39.9197Z" fill="#1D428A"/>
<path d="M82.989 48.0853L83.0398 54.9176L85.8509 55.0192L85.9137 51.1235L82.989 48.0853ZM87.1176 51.6134C87.0602 52.7568 87.0596 54.3652 86.9831 55.2103C88.9544 55.4417 91.0646 56.0884 92.9192 56.6084C94.5979 57.0138 96.4034 57.7342 97.8813 58.3919L98.6938 52.5097C94.7965 52.0294 91.1067 51.7373 87.1176 51.6134ZM78.6871 51.6224C76.0275 51.7123 73.3858 51.8788 70.7644 52.1273C70.9919 53.6186 71.3329 55.8477 71.568 57.4002C71.568 57.4002 73.9918 55.9807 78.8425 55.4434L78.6871 51.6224ZM65.9636 52.665C63.3768 53.0073 60.8131 53.4325 58.274 53.9257C59.2472 57.0901 60.4873 61.3372 61.4586 64.534C63.7165 62.8533 65.0748 61.1268 67.4514 59.6795C67.0002 57.5419 66.4014 54.7758 65.9636 52.665ZM101.231 52.8174L99.8475 59.575C102.05 60.8503 103.766 62.2917 105.736 64.2055L106.121 64.5012L109.225 54.2365C106.552 53.6839 103.957 53.2017 101.231 52.8174ZM52.482 55.1835C49.5777 55.8852 47.0515 56.6238 44.2218 57.5167C46.0114 61.7707 48.0137 66.1541 50.1398 70.2342C52.0709 69.523 54.7648 68.5512 57.2827 67.8801L52.482 55.1835ZM114.677 55.4882L109.637 68.4954L117.031 70.2341L123.254 57.9318C120.386 56.9969 117.618 56.2244 114.677 55.4882ZM39.4838 59.0761C36.3521 60.1946 33.5023 61.3519 30.4738 62.6998L38.985 74.8049C39.4114 74.4378 43.6098 72.6253 46.4834 71.4111C44.3 67.4572 41.6731 63.0988 39.4838 59.0761ZM127.765 59.5003L120.948 71.7577C126.839 74.0444 135.076 78.6597 138.353 80.8605C139.864 79.415 148.059 70.8123 149.185 69.6307C142.371 65.6328 135.213 62.2344 127.765 59.5003ZM23.012 66.2579C21.1459 67.2254 19.3046 68.2407 17.4883 69.2961L28.5149 80.3585C29.8513 79.5555 31.2675 78.7365 32.8258 77.8341L23.012 66.2579Z" fill="#9EA2A2"/>
<path d="M83.6886 53.6662C65.4065 53.6681 50.5889 68.4876 50.5889 86.7697C50.5889 105.048 65.4065 119.866 83.6886 119.866C101.969 119.866 116.788 105.048 116.788 86.7697C116.788 68.4876 101.969 53.6681 83.6886 53.6662Z" fill="#1D428A"/>
<path d="M46.2678 15.9262L41.6253 29.1306L34.1837 35.5387L40.9652 18.4184L33.6759 21.328L13.582 65.413L16.7248 68.5647C18.5891 67.4768 20.4802 66.433 22.398 65.4369L28.803 49.1639L34.4254 44.139L35.7697 45.7044L30.216 61.6776C33.2522 60.3392 36.3436 59.1139 39.483 58.0031L43.5101 44.8316L40.0357 39.0957L47.2293 32.2575L51.4356 18.2464L46.2678 15.9262ZM118.495 15.9979L115.741 18.1249L120.73 34.3322L136.784 45.6754L140.898 55.9313L134.221 52.9199L131.93 46.5358L123.741 44.1249L128.121 58.5482C129.471 59.0453 130.81 59.5595 132.139 60.0987C135.783 61.5728 139.354 63.2063 142.843 64.9921C145.261 66.2291 147.637 67.5402 149.974 68.9206L153.463 65.3417L142.661 41.5265L125.782 30.2579L122.845 22.0126L128.07 23.8707L130.185 29.024L138.132 31.5722L133.496 21.3254L118.495 15.9979ZM86.9068 17.7127L83.2591 21.3545L83.2471 46.6794L87.077 50.5989C91.0271 50.7213 94.9376 51.0167 98.7997 51.4832L98.008 44.2566L90.8532 43.8324L89.7031 23.5779L95.7675 23.8737L95.0565 18.2962L86.9068 17.7127ZM79.725 17.7277L73.5619 18.0504L70.6671 51.121C73.2845 50.8724 75.9231 50.703 78.5807 50.6131L79.725 17.7277ZM69.9412 18.4865L64.2172 19.32L62.3411 30.1793L60.2141 19.9594L53.4865 21.6443L44.1239 56.4602C46.8235 55.617 49.5536 54.8589 52.3183 54.1897L57.4627 30.7798L60.0469 43.3509L58.3769 52.8778C60.8759 52.3979 63.3974 51.9865 65.9441 51.65L65.9591 51.6469L69.9412 18.4865ZM97.0787 18.5373C97.0787 18.5373 100.001 40.8337 101.377 51.8175C104.014 52.1903 106.625 52.6472 109.213 53.1768L107.194 42.4281L109.207 39.7096L112.15 42.1294L114.857 54.4614C117.698 55.1746 120.505 55.9816 123.275 56.8783L118.225 38.7912L113.017 34.5342L115.981 30.5789L113.516 21.3984L107.234 20.0033L109.704 29.2434L105.791 34.4743L102.896 19.2743L97.0765 18.5364L97.0787 18.5373ZM82.8227 56.1247C79.9593 56.1879 77.1962 56.5333 74.5863 57.484C75.7048 58.2048 76.6518 58.4563 78.3056 59.4467C80.7299 58.3206 83.1765 57.0279 85.7174 56.1426C84.7418 56.113 83.7771 56.1037 82.8227 56.1247ZM88.8603 56.5758C85.8471 57.3463 80.0055 60.1279 80.0055 60.1279C89.9305 62.9059 101.627 62.3394 109.428 70.1955C104.82 62.8115 96.9723 57.9582 88.8603 56.5758ZM72.6623 58.1233C69.7676 59.3049 66.6716 60.8454 64.5455 62.7956C67.8322 63.178 69.24 63.3827 71.9244 64.1131C73.5286 62.6868 75.081 61.437 77.012 60.2802L72.6623 58.1233ZM78.4489 60.7821C76.5981 61.9159 74.7937 63.2527 73.2508 64.6389C90.206 69.9541 105.593 86.5346 109.258 103.67C111.92 99.8292 113.524 95.3722 114.173 90.6421C114.586 83.3747 114.515 76.7614 107.624 70.4503C99.4352 63.225 88.0224 64.149 78.4489 60.7821ZM62.8871 64.14C59.8739 66.7976 57.03 70.8639 55.6725 74.2883C58.5157 71.3974 62.0555 69.0752 66.5468 70.0789L66.5826 70.0909C67.8617 68.286 69.0836 66.7381 70.7202 65.1646C67.6802 64.2163 65.6633 64.2604 62.8871 64.14ZM72.1183 65.6964C70.5811 67.1992 69.2139 68.8167 68.0017 70.524L68.0077 70.5689C73.6938 73.0373 75.1862 79.1214 77.3314 87.1875C80.1287 97.6995 82.7359 108.366 90.6553 116.578C95.1101 115.517 99.7532 113.553 103.967 109.764C105.267 108.464 107.208 106.648 108.015 105.342C105.248 88.0644 89.0781 70.4809 72.1183 65.6964ZM64.6796 71.3158C60.2265 71.231 56.8579 74.5362 54.1997 78.2465C50.741 90.4256 55.3365 102.97 63.0454 109.443C57.0802 97.0349 58.0918 82.8749 65.5848 71.3772C65.2782 71.3406 64.9765 71.3214 64.6796 71.3158ZM67.0786 71.7937C59.1019 83.0781 58.3491 100.444 66.3258 112.085C72.767 116.162 80.8448 118.606 88.9969 116.952C78.5385 104.861 77.6437 91.5688 73.6065 79.5648C73.0788 77.997 70.9637 72.9103 67.0786 71.7937Z" fill="#F58426"/>
</svg>
