<svg width="137" height="137" viewBox="0 0 137 137" fill="none" xmlns="http://www.w3.org/2000/svg">
<g clip-path="url(#clip0_1799_1125)">
<path d="M137 68.5C137 82.048 132.983 95.2918 125.456 106.557C117.929 117.821 107.231 126.601 94.7138 131.786C82.1971 136.97 68.424 138.327 55.1363 135.684C41.8486 133.041 29.6431 126.517 20.0632 116.937C10.4833 107.357 3.95933 95.1514 1.31624 81.8637C-1.32685 68.576 0.0296803 54.8029 5.21428 42.2862C10.3989 29.7694 19.1787 19.0712 30.4435 11.5443C41.7082 4.01746 54.952 1.19334e-06 68.5 1.19334e-06C77.496 -0.00167808 86.4043 1.76898 94.7158 5.21083C103.027 8.65269 110.579 13.6983 116.941 20.0594C123.302 26.4206 128.347 33.9726 131.789 42.2842C135.231 50.5958 137.002 59.504 137 68.5Z" fill="white"/>
<path d="M134.479 68.5003C134.479 81.5497 130.61 94.306 123.36 105.156C116.11 116.006 105.805 124.463 93.7493 129.457C81.6933 134.451 68.4271 135.757 55.6285 133.211C42.8299 130.666 31.0736 124.382 21.8463 115.154C12.619 105.927 6.33509 94.1708 3.78928 81.3721C1.24347 68.5735 2.55007 55.3074 7.54385 43.2513C12.5376 31.1952 20.9943 20.8908 31.8445 13.6409C42.6946 6.39107 55.451 2.52148 68.5003 2.52148C85.9989 2.52179 102.781 9.47321 115.154 21.8466C127.527 34.2199 134.479 51.0017 134.479 68.5003Z" fill="#1D428A"/>
<path d="M12.7003 79.75L14.0559 84.0553H18.6229L14.9362 86.7428L16.2681 90.9764L12.7003 88.3843L9.08527 90.9764L10.4408 86.7428L6.73047 84.0553H11.2968L12.7003 79.75Z" fill="white"/>
<path d="M124.322 79.75L125.678 84.0553H130.268L126.558 86.7428L127.914 90.9764L124.322 88.3843L120.731 90.9764L122.087 86.7428L118.376 84.0553H122.919L124.322 79.75Z" fill="white"/>
<path d="M28.7316 102.822L30.0878 107.103H34.6541L30.9437 109.815L32.2993 114.049L28.7316 111.456L25.1165 114.049L26.4721 109.815L22.7617 107.103H27.3287L28.7316 102.822Z" fill="white"/>
<path d="M109.791 102.822L111.146 107.103H115.713L112.026 109.815L113.382 114.049L109.791 111.456L106.175 114.049L107.555 109.815L103.845 107.103H108.387L109.791 102.822Z" fill="white"/>
<path d="M53.7296 117.83L55.0622 122.135H59.6522L55.9418 124.823L57.2973 129.057L53.7296 126.464L50.1146 129.057L51.4701 124.823L47.7598 122.135H52.3267L53.7296 117.83Z" fill="white"/>
<path d="M84.1027 117.83L85.4582 122.135H90.0252L86.3148 124.823L87.6704 129.057L84.1027 126.464L80.4876 129.057L81.8432 124.823L78.1328 122.135H82.6998L84.1027 117.83Z" fill="white"/>
<path d="M117.973 68.8091C117.973 78.5938 115.071 88.1588 109.635 96.2944C104.199 104.43 96.4726 110.771 87.4328 114.516C78.3929 118.26 68.4457 119.24 58.849 117.331C49.2523 115.422 40.4372 110.71 33.5184 103.791C26.5996 96.8725 21.8878 88.0574 19.9789 78.4607C18.07 68.864 19.0498 58.9168 22.7942 49.8769C26.5386 40.8371 32.8796 33.1106 41.0153 27.6745C49.1509 22.2384 58.7159 19.3369 68.5006 19.3369C74.9976 19.3359 81.4312 20.6149 87.4339 23.1007C93.4366 25.5866 98.8908 29.2307 103.485 33.8248C108.079 38.4189 111.723 43.8731 114.209 49.8758C116.695 55.8785 117.974 62.3121 117.973 68.8091Z" fill="white"/>
<path d="M21.9776 78.5369C24.5604 90.8741 31.9368 101.681 42.4851 108.58C53.0334 115.48 65.8901 117.909 78.2284 115.332C84.3542 114.102 90.1702 111.654 95.3307 108.132C100.491 104.609 104.891 100.086 108.269 94.8295C115.087 84.2465 117.51 71.4222 115.023 59.081C112.438 46.7488 105.066 35.9459 94.5244 29.0432C83.9831 22.1405 71.1337 19.7018 58.7963 22.2623C52.683 23.5384 46.881 26.0064 41.7217 29.5255C36.5625 33.0445 32.1472 37.5456 28.728 42.7715C25.3088 47.9975 22.9528 53.8459 21.7945 59.9827C20.6363 66.1194 20.6985 72.4242 21.9776 78.5369Z" fill="#1D428A"/>
<path d="M84.6738 31.777C84.8403 33.6322 83.9603 35.4398 82.1051 37.1523C73.1858 30.6115 64.6946 27.4006 56.37 27.353C54.6259 27.3539 52.8845 27.4891 51.1611 27.7574C53.8165 26.6417 56.5721 25.7815 59.3907 25.1886C66.7127 23.649 74.3051 23.9844 81.4629 26.1638C83.0089 27.6622 84.5073 29.6126 84.6738 31.777Z" fill="white"/>
<path d="M75.3741 108.554C84.7453 99.944 89.0979 81.5108 91.6904 70.4985L92.0948 68.7859C93.4267 63.1728 95.7814 58.9866 98.3264 56.4893C107.721 71.0931 106.461 86.1726 104.082 95.6389C99.9216 101.146 94.5413 105.614 88.3636 108.693C82.1859 111.772 75.3788 113.377 68.4766 113.382C70.988 112.1 73.3093 110.475 75.3741 108.554Z" fill="white"/>
<path d="M92.4033 45.9997C96.2089 42.8126 99.2533 40.3865 101.418 38.793C106.132 43.9464 109.562 50.1398 111.431 56.8694C109.671 54.5147 107.435 52.2789 105.009 51.7794C102.916 51.3513 100.776 51.9459 98.7538 53.373C96.8367 50.7501 94.7131 48.2845 92.4033 45.9997Z" fill="white"/>
<path d="M24.8074 66.8118C29.1362 55.2048 45.0007 50.4479 50.9706 48.664L51.2323 48.5927C53.8794 47.9026 56.5634 47.3626 59.2715 46.9753C66.954 45.6672 76.4441 44.0498 82.1762 39.7686C84.671 41.6756 87.0609 43.7162 89.3354 45.8812C76.3727 56.8936 56.3222 75.3981 34.9397 98.1125C29.9027 92.3636 26.4442 85.4056 24.9026 77.9193C24.2687 74.9323 23.9498 71.887 23.9512 68.8335C24.4507 67.6443 24.8074 66.8118 24.8074 66.8118Z" fill="white"/>
<path d="M90.905 44.549C88.6357 42.3799 86.2539 40.3316 83.7695 38.4126C85.9339 36.2958 86.9329 34.0124 86.7188 31.5864C86.5709 30.137 86.0641 28.7473 85.2442 27.543C90.7419 29.8001 95.7438 33.1132 99.9669 37.2947C97.7312 38.9596 94.6629 41.4095 90.905 44.549Z" fill="white"/>
<path d="M80.4399 38.4838C75.0646 42.1942 66.1691 43.7164 58.9147 44.9294C56.1286 45.34 53.3658 45.8957 50.6377 46.5944L50.376 46.6657C44.6439 48.3783 30.2304 52.6833 24.2842 63.0772C25.1532 56.411 27.5194 50.028 31.2055 44.4062C34.3741 39.5374 38.4234 35.3026 43.1455 31.9192C53.7059 27.4714 65.5507 27.7807 80.4399 38.4838Z" fill="white"/>
<path d="M104.582 53.801C107.698 54.4432 111.027 59.6758 112.621 62.6727C114.01 72.3991 112.109 82.3107 107.222 90.8338C107.46 89.3354 107.65 87.7418 107.793 86.0768C108.676 75.1668 105.907 64.2726 99.9199 55.1091C101.537 53.9675 103.155 53.5156 104.582 53.801Z" fill="white"/>
<path d="M90.8339 47.3311C93.1479 49.5984 95.2571 52.0658 97.1369 54.7043C94.0925 57.6061 91.4999 62.4106 90.0966 68.3092L89.6923 70.0455C87.1473 80.8437 82.8898 98.8963 73.9943 107.055C71.0225 109.871 67.4292 111.949 63.5053 113.12C56.575 112.336 49.9264 109.932 44.0969 106.103C41.2726 104.251 38.6639 102.089 36.3193 99.6575C57.9159 76.6814 78.0377 58.2007 90.8339 47.3311Z" fill="white"/>
<path d="M80.7969 82.0335L82.0099 81.7006C82.7472 81.5103 83.2229 81.2724 83.2229 80.2021C83.2229 79.3221 82.9851 77.7285 81.9148 77.7285C80.7969 77.7285 80.7969 79.6313 80.7969 80.654V82.0335Z" fill="white"/>
<path d="M66.3119 81.3681C66.3119 77.5626 66.1692 74.2803 63.6004 74.2803C61.5074 74.2803 61.1268 77.5626 61.1268 81.3681C61.1268 85.1737 61.0079 88.4797 63.6004 88.4797C65.7648 88.456 66.3119 85.1737 66.3119 81.3681Z" fill="white"/>
<path d="M80.7969 82.0335L82.0099 81.7006C82.7472 81.5103 83.2229 81.2724 83.2229 80.2021C83.2229 79.3221 82.9851 77.7285 81.9148 77.7285C80.7969 77.7285 80.7969 79.6313 80.7969 80.654V82.0335Z" fill="white"/>
<path d="M60.8169 72.6388H60.8645C62.1013 70.7122 64.456 69.7846 66.7631 69.7846C71.9957 69.7846 75.2067 74.3037 75.2067 80.3688C75.2067 87.5518 70.3308 91.8331 64.3133 91.8331C55.061 91.8331 51.6836 84.3647 51.6836 75.707C51.6836 65.7412 56.0124 57.5117 66.7869 57.5117C70.9968 57.5117 74.4456 60.2232 74.4456 64.3617C74.4621 64.897 74.3677 65.43 74.1682 65.927C73.9687 66.424 73.6685 66.8744 73.2865 67.2498C72.9044 67.6251 72.4488 67.9173 71.9483 68.1079C71.4479 68.2986 70.9133 68.3836 70.3784 68.3575C67.4766 68.3575 66.549 65.9315 66.1209 63.7909C65.9544 62.8871 66.2874 60.8891 64.789 60.8891C61.6494 60.8891 61.1499 67.0256 61.0072 69.2851L60.8169 72.6388Z" fill="white"/>
<path d="M66.3119 81.3681C66.3119 77.5626 66.1692 74.2803 63.6004 74.2803C61.5074 74.2803 61.1268 77.5626 61.1268 81.3681C61.1268 85.1737 61.0079 88.4797 63.6004 88.4797C65.7648 88.456 66.3119 85.1737 66.3119 81.3681Z" fill="white"/>
<path d="M10.2033 57.892C11.9634 58.106 12.6769 59.3428 12.4153 61.6262L12.225 63.2911L13.1764 63.41C14.3894 63.5527 14.8413 63.5289 14.984 62.5538L16.1019 62.6965L15.5786 67.2156L14.4608 67.0729C14.5559 66.0739 14.104 65.955 12.891 65.8123L9.37083 65.4079C8.15781 65.2652 7.7059 65.289 7.56319 66.2642L6.44531 66.1215L7.03993 61.1742C7.32535 58.7482 8.39566 57.6779 10.2033 57.892ZM11.1547 62.6965C11.3212 61.198 10.893 60.3893 9.82274 60.2704C8.89515 60.1515 8.22916 60.7461 8.08646 61.864C7.99132 62.6489 8.27673 62.8154 9.13299 62.9105L11.0833 63.1484C11.1071 63.0057 11.1309 62.863 11.1547 62.6965Z" fill="white"/>
<path d="M16.8163 52.8973C17.1731 51.9697 16.7926 51.7318 15.6747 51.2561L12.4162 49.9004C11.2983 49.4247 10.8464 49.3296 10.442 50.2334L9.39551 49.8053L11.1556 45.6191L12.1783 46.0473C11.8216 46.9749 12.2021 47.2127 13.32 47.6884L14.1525 48.0452L15.4606 44.9056L14.6282 44.5488C13.5103 44.0731 13.0584 43.978 12.654 44.8818L11.6313 44.4537L13.3914 40.2676L14.4379 40.6957C14.0811 41.6233 14.4617 41.8612 15.5796 42.3369L18.8381 43.6926C19.9559 44.1683 20.4079 44.2634 20.8122 43.3596L21.8587 43.7877L20.0986 47.9738L19.0759 47.5457C19.4326 46.6181 19.0521 46.3803 17.9342 45.9046L16.5071 45.3099L15.199 48.4495L16.6261 49.0441C17.744 49.5198 18.1959 49.615 18.6002 48.7112L19.623 49.1393L17.8629 53.3254L16.8163 52.8973Z" fill="white"/>
<path d="M21.1928 30.6591C20.6219 31.4678 20.9311 31.8008 21.9063 32.5381L24.7367 34.6549C25.7119 35.3923 26.1162 35.5825 26.7346 34.8214L27.6384 35.4874L24.927 39.1027L24.0232 38.4367C24.594 37.628 24.2848 37.295 23.2858 36.5577L20.4555 34.4409C19.4803 33.7036 19.0759 33.4895 18.4575 34.2744L17.5537 33.6084L20.2652 29.9932L21.1928 30.6591Z" fill="white"/>
<path d="M31.4191 31.1819L30.7056 30.3256C31.4429 29.6597 31.2051 29.2791 30.4202 28.3515L28.1368 25.6401C27.3519 24.7125 27.0189 24.4033 26.2341 25.0217L25.5205 24.1654L28.9931 21.2637L29.7066 22.1199C28.9693 22.7859 29.1833 23.1665 29.9683 24.1178L32.5133 27.1385C33.1079 27.8282 33.3695 27.9471 34.083 27.3525C35.0344 26.5438 35.4388 25.1168 35.1058 23.3091L36.1047 23.0951L37.1275 26.4249L31.4191 31.1819Z" fill="white"/>
<path d="M42.1944 22.8811L41.7188 21.8583C42.575 21.3351 42.5274 20.7643 42.5036 19.7653L42.2658 12.7488L44.1686 11.8926L49.4012 17.0063C49.9958 17.5771 50.3288 17.8625 51.0899 17.6009L51.5656 18.6237L47.4271 20.5026L46.9752 19.5037C47.011 19.4978 47.0441 19.4812 47.0703 19.4561C47.6412 19.1945 47.8552 18.9566 47.6887 18.5999C47.6316 18.4746 47.5508 18.3616 47.4509 18.2669L46.4995 17.3155L43.8356 18.5285L44.0021 19.8367C44.0117 19.9348 44.0358 20.031 44.0734 20.1221C44.2637 20.5264 44.6443 20.5502 45.2865 20.2648L45.7384 21.2637L42.1944 22.8811ZM45.5719 16.483L43.6216 14.3899L43.788 17.3155L45.5719 16.483Z" fill="white"/>
<path d="M56.1798 16.1021C57.1549 15.9356 57.1787 15.4837 57.0122 14.2707L56.5127 10.7743C56.3462 9.5613 56.2035 9.13318 55.2046 9.2521L55.0381 8.13422L59.6048 7.49204C63.1249 6.99256 65.218 8.37207 65.6461 11.2738C66.0504 14.1993 64.433 16.0783 60.9129 16.6016L56.3462 17.2438L56.1798 16.1021ZM59.462 14.4847C59.581 15.3886 59.7475 15.6264 60.6989 15.4837C62.5065 15.2221 63.5054 13.795 63.1725 11.6068C62.8633 9.4186 61.5313 8.3245 59.6999 8.58613C58.7485 8.72884 58.6772 8.99047 58.7961 9.89429L59.462 14.4847Z" fill="white"/>
<path d="M72.1391 14.7706C73.1143 14.8895 73.2808 14.4614 73.4473 13.2484L73.9468 9.75204C74.1133 8.53902 74.1133 8.08711 73.1381 7.92061L73.3046 6.80273L80.8443 7.89683L81.6768 10.8224L80.773 11.1316C80.0356 9.60933 78.9891 8.72929 77.5858 8.53902C76.682 8.39631 76.5155 8.65794 76.3966 9.53798L76.2063 10.8461L76.6344 10.9175C77.5858 11.0602 77.8713 10.7985 78.0853 9.68066L79.0367 9.82337L78.4421 13.9144L77.4907 13.7717C77.5145 12.7014 77.2053 12.1543 76.468 12.0592L76.0398 11.9878L75.7306 14.1046C75.6117 14.9847 75.6831 15.2701 76.6107 15.389C77.9426 15.5793 79.5124 14.9371 80.7492 13.4625L81.5341 14.0571L79.7027 16.9826L71.9727 15.8409L72.1391 14.7706Z" fill="white"/>
<path d="M86.3623 18.7905L86.8142 17.7678C87.7418 18.1484 87.9797 17.7678 88.4791 16.6261L89.9062 13.3914C90.4057 12.2735 90.5246 11.8454 89.6208 11.4173L90.0727 10.3945L94.2112 12.2022L93.7593 13.2249C92.8318 12.8444 92.5939 13.2249 92.0944 14.3428L90.5008 17.9581C90.1441 18.7905 90.1678 19.076 91.0241 19.4565C92.1658 19.956 93.6404 19.6944 95.0913 18.5765L95.7335 19.3614L93.2123 21.7636L86.3623 18.7905Z" fill="white"/>
<path d="M109.648 25.5215C108.53 26.9011 107.103 26.8535 105.295 25.4026L103.987 24.3561L103.392 25.0934C102.631 26.0448 102.393 26.4491 103.155 27.0913L102.441 27.9714L98.9209 25.1172L99.6344 24.2372C100.419 24.8318 100.776 24.5464 101.537 23.595L103.749 20.836C104.51 19.8846 104.724 19.4802 103.987 18.838L104.701 17.958L108.577 21.0976C110.456 22.596 110.789 24.0945 109.648 25.5215ZM105.057 23.7377C106.223 24.6891 107.15 24.7366 107.816 23.9042C108.411 23.1669 108.268 22.3106 107.388 21.5971C106.77 21.0976 106.484 21.2403 105.937 21.9063L104.701 23.4285C104.843 23.5474 104.962 23.6426 105.057 23.7377Z" fill="white"/>
<path d="M110.337 33.7744C110.931 34.5831 111.336 34.3928 112.335 33.6792L115.236 31.6575C116.235 30.9678 116.568 30.6348 116.021 29.8023L116.949 29.1602L119.541 32.8706L118.638 33.5128C118.043 32.7041 117.639 32.8944 116.64 33.6079L115.902 34.1312L117.853 36.914L118.59 36.3907C119.589 35.701 119.922 35.368 119.375 34.5355L120.279 33.8933L122.871 37.6038L121.944 38.2459C121.349 37.4373 120.945 37.6275 119.946 38.3411L117.044 40.3628C116.045 41.0525 115.712 41.3855 116.259 42.218L115.332 42.8602L112.739 39.1497L113.643 38.5076C114.237 39.3162 114.642 39.126 115.641 38.4124L116.901 37.5324L114.951 34.7496L113.69 35.6296C112.691 36.3193 112.358 36.6523 112.906 37.4848L112.002 38.127L109.409 34.4165L110.337 33.7744Z" fill="white"/>
<path d="M126.82 49.3538C126.44 48.4262 125.988 48.5214 124.846 48.9495L121.54 50.2101C120.398 50.6382 120.018 50.876 120.327 51.8274L119.28 52.2318L117.663 47.9981L118.71 47.5937C119.09 48.5213 119.542 48.4024 120.684 47.9743L123.99 46.7137C125.131 46.2856 125.536 46.0478 125.203 45.1202L126.249 44.7158L127.867 48.9495L126.82 49.3538Z" fill="white"/>
<path d="M120.897 57.2023L122.015 57.0596C122.253 58.0347 122.824 58.1537 123.775 58.4153L130.554 60.2467L130.816 62.316L124.394 65.8124C123.657 66.2167 123.3 66.4308 123.324 67.2632L122.206 67.406L121.611 62.9106L122.705 62.7679V62.8631C122.776 63.4815 122.967 63.7669 123.347 63.7193C123.489 63.6932 123.625 63.6451 123.752 63.5766L124.941 62.9344L124.56 60.0327L123.252 59.7948C123.15 59.7751 123.047 59.7671 122.943 59.7711C122.515 59.8186 122.372 60.1992 122.444 60.8889L121.349 61.0317L120.897 57.2023ZM126.035 62.2922L128.604 61.0316L125.773 60.3419L126.035 62.2922Z" fill="white"/>
<path d="M96.3049 74.5901C95.853 74.5904 95.4065 74.6883 94.996 74.8771C94.5855 75.066 94.2206 75.3413 93.9264 75.6842C93.855 75.5415 93.8075 75.3988 93.7361 75.2799L93.2366 74.3047L86.125 76.3977V80.2984H87.4332C87.5521 80.2984 87.6234 80.3222 87.6472 80.2984C87.8158 80.8362 87.8725 81.4028 87.8137 81.9634V86.4825L86.5056 86.6727V90.954H96.3524V86.6727L95.0681 86.4825V85.1505C95.0983 84.1194 95.2177 83.0928 95.4248 82.0823C95.8404 82.2123 96.2738 82.2765 96.7092 82.2726C98.4693 82.2726 99.7061 80.679 99.7061 78.4194C99.7299 76.1361 98.3504 74.5901 96.3049 74.5901Z" fill="white"/>
<path d="M108.648 79.132C108.577 78.9333 108.537 78.7247 108.529 78.5136C108.529 77.3482 108.053 74.6367 103.748 74.6367C101.37 74.6367 96.6842 76.4681 96.6842 80.7256C96.6443 82.0106 97.0474 83.2702 97.8259 84.2933C97.3352 84.6076 96.936 85.0457 96.6687 85.5636C96.4015 86.0814 96.2755 86.6606 96.3037 87.2426C96.3037 88.7648 97.0648 91.3336 102.226 91.3336C106.65 91.3336 109.171 89.0503 109.171 85.0545C109.195 81.2489 108.862 79.9883 108.648 79.132Z" fill="white"/>
<path d="M56.6077 56.2517C56.4752 56.097 56.3111 55.9724 56.1266 55.8863C55.942 55.8001 55.7411 55.7544 55.5374 55.7522C54.8952 55.7522 54.3719 56.1566 53.7535 56.8226C52.6964 57.9275 51.4209 58.8004 50.0083 59.3859C48.5956 59.9715 47.0766 60.2568 45.5478 60.2238C41.2666 60.2238 36.7475 58.2496 33.156 54.8246C33.0182 54.688 32.8549 54.5798 32.6753 54.5064C32.4958 54.4329 32.3035 54.3956 32.1094 54.3965C30.3494 54.3965 29.8975 57.2031 29.8975 57.2507V71.355L31.0153 71.5215C34.7609 72.1669 38.5996 72.0293 42.2893 71.1172C38.674 74.3519 30.5397 83.1522 30.6586 91.5245C30.6823 93.0705 31.6337 93.237 32.0381 93.237C32.4399 93.2306 32.8236 93.0686 33.1084 92.7851C33.1797 92.7375 33.2511 92.6662 33.3224 92.6186C34.866 91.6547 36.6657 91.182 38.4837 91.2629C40.1289 91.2397 41.7597 91.5724 43.2644 92.238C43.5344 92.3869 43.8363 92.4685 44.1445 92.4759C44.3407 92.477 44.535 92.4374 44.7151 92.3596C44.8952 92.2818 45.0573 92.1675 45.191 92.024C45.3595 91.8125 45.4789 91.5662 45.5406 91.303C45.6023 91.0397 45.6048 90.7661 45.5478 90.5017C44.9532 84.4128 46.2851 77.7769 48.8776 73.9476L49.2582 73.3767C51.4702 70.1182 56.0606 63.3158 56.9169 57.7026C56.9781 57.4531 56.9821 57.193 56.9285 56.9417C56.875 56.6905 56.7653 56.4546 56.6077 56.2517Z" fill="white"/>
<path d="M89.3583 83.1993L89.287 82.129C89.2495 81.4545 89.1459 80.7853 88.9778 80.1311L88.9302 78.8942L88.6924 79.251C88.2465 77.8844 87.3766 76.6956 86.2089 75.8572C85.0412 75.0188 83.6366 74.5747 82.1991 74.5892C77.6325 74.5892 74.4453 78.2045 74.4453 83.3658C74.4453 87.3378 76.7762 91.3337 81.9375 91.3337C83.3589 91.3532 84.7611 91.0042 86.0074 90.3206C87.2537 89.637 88.3017 88.6421 89.0491 87.433L89.2394 87.1L89.0967 83.2706L89.3583 83.1993ZM83.8165 85.6729C83.5952 85.6665 83.3801 85.5986 83.1952 85.4767C83.0104 85.3549 82.8631 85.184 82.77 84.9832L85.2911 84.2934C84.9012 84.8511 84.3989 85.321 83.8165 85.6729Z" fill="white"/>
<path d="M72.3531 70.7124C72.0914 70.3557 71.806 69.9275 71.5682 69.5708C72.7778 69.3607 73.8704 68.7199 74.6443 67.7668C75.4181 66.8136 75.8209 65.6127 75.7781 64.3857C75.7781 59.7239 71.9249 56.2275 66.8112 56.2275C56.5362 56.2275 50.376 63.5295 50.376 75.731C50.376 86.8147 55.4659 93.1652 64.3138 93.1652C71.4968 93.1652 76.5154 87.9088 76.5154 80.3928C76.5392 76.6348 74.018 73.0671 72.3531 70.7124Z" fill="white"/>
<path d="M83.8413 87.0045C82.2478 87.0045 81.2964 85.5537 81.1537 84.079L88.0037 82.2238C87.8134 78.8702 85.863 75.9209 82.224 75.9209C78.3471 75.9209 75.7783 78.9416 75.7783 83.3893C75.7783 86.8619 77.7762 90.0252 81.9623 90.0252C83.1553 90.0505 84.3341 89.7631 85.3815 89.1914C86.4289 88.6197 87.3083 87.7838 87.9323 86.7667L86.5766 85.1494C85.9344 86.1959 85.1495 87.0045 83.8413 87.0045ZM80.8207 80.6778C80.8207 79.6551 80.8207 77.7523 81.9386 77.7523C82.9851 77.7523 83.2467 79.3459 83.2467 80.2259C83.2698 80.4047 83.2563 80.5862 83.2071 80.7596C83.158 80.933 83.0742 81.0946 82.9608 81.2347C82.8474 81.3747 82.7068 81.4904 82.5474 81.5745C82.3881 81.6587 82.2133 81.7097 82.0337 81.7244L80.8207 82.0573V80.6778Z" fill="#1D428A"/>
<path d="M95.0919 89.6444H87.8614V87.813L89.1696 87.6227V81.9619C89.1696 79.9402 88.9079 78.9651 87.457 78.9651V77.3715L92.5945 75.873C93.1298 77.047 93.4211 78.3174 93.4508 79.6073H93.4984C94.0216 78.0612 94.6638 75.8968 96.3287 75.8968C97.8034 75.8968 98.4456 77.0385 98.4456 78.418C98.4456 79.8213 97.8272 80.963 96.7568 80.963C96.1649 80.9243 95.5848 80.7793 95.0443 80.5349C94.1167 80.2257 93.8075 84.2928 93.8075 85.1491V87.6227L95.0919 87.813L95.0919 89.6444Z" fill="#1D428A"/>
<path d="M107.245 78.5375C107.245 79.6554 106.27 80.2262 105.247 80.2262C104.658 80.1934 104.098 79.9536 103.667 79.549C103.237 79.1445 102.962 78.601 102.893 78.0143C102.37 78.0143 101.989 78.2759 101.989 79.1797C101.989 81.2728 107.911 79.7743 107.911 85.0783C107.911 89.0503 105.033 90.0493 102.274 90.0493C100.586 90.0493 97.6602 89.8353 97.6602 87.2665C97.6602 86.101 98.3023 85.221 99.4678 85.221C101.252 85.221 101.561 86.8622 101.87 88.0276C101.911 88.1478 101.993 88.2497 102.102 88.315C102.211 88.3803 102.339 88.4049 102.465 88.3844C103.416 88.3844 104.106 88.0038 104.106 87.3616C104.106 84.9832 98.0407 85.9108 98.0407 80.7257C98.0407 77.4434 101.918 75.9688 103.797 75.9688C105.913 75.9688 107.245 76.6823 107.245 78.5375Z" fill="#1D428A"/>
<path d="M66.8113 69.8087C64.5041 69.8087 62.1494 70.7363 60.9126 72.6628H60.8651L61.1029 69.333C61.2456 67.0734 61.7451 60.937 64.8847 60.937C66.3831 60.937 66.0501 62.9349 66.2166 63.8387C66.621 65.9556 67.5486 68.4054 70.4741 68.4054C71.0086 68.4295 71.5423 68.3432 72.0419 68.1519C72.5415 67.9606 72.9964 67.6683 73.378 67.2933C73.7597 66.9184 74.0599 66.4688 74.2601 65.9726C74.4602 65.4765 74.5559 64.9444 74.5413 64.4096C74.5413 60.271 71.0925 57.5596 66.8826 57.5596C56.1081 57.5596 51.7793 65.7891 51.7793 75.7549C51.7793 84.4125 55.1329 91.8809 64.409 91.8809C70.4265 91.8809 75.3024 87.5997 75.3024 80.4167C75.2548 74.3278 72.0439 69.8087 66.8113 69.8087ZM63.6003 88.4797C61.0316 88.4797 61.1267 85.1736 61.1267 81.368C61.1267 77.5625 61.4835 74.2802 63.6003 74.2802C66.1928 74.2802 66.3118 77.5625 66.3118 81.368C66.3356 85.1736 65.7885 88.4797 63.6003 88.4797Z" fill="#1D428A"/>
<path d="M31.2061 57.3688V70.2125C38.389 71.2828 46.9753 70.5693 53.0642 61.6976C53.3259 61.317 53.4686 61.5787 53.3021 61.9117C51.6133 65.3605 47.5937 68.5476 44.1212 71.2828C40.7913 73.8992 31.8482 83.2703 31.9672 91.5236C31.9672 92.1658 31.991 91.9756 32.5618 91.5712C35.2732 89.5495 40.5772 89.5019 43.8357 91.0479C44.2876 91.262 44.3352 91.1906 44.2639 90.6198C43.6455 84.2217 45.0725 77.2528 47.8078 73.1856C49.6868 70.379 54.7767 63.1484 55.6568 57.4877C55.7519 56.8931 55.4427 56.9882 54.7054 57.7731C48.9495 63.862 38.5555 63.6955 31.8245 57.2736C31.4201 56.8217 31.2298 57.012 31.2061 57.3688Z" fill="#C8102E"/>
<path d="M43.6745 61.9885C50.4786 61.9885 55.9944 56.4727 55.9944 49.6686C55.9944 42.8645 50.4786 37.3486 43.6745 37.3486C36.8703 37.3486 31.3545 42.8645 31.3545 49.6686C31.3545 56.4727 36.8703 61.9885 43.6745 61.9885Z" fill="white"/>
<path d="M43.6694 37.7939L44.0737 39.1022H45.4772L44.3354 39.9108L44.7397 41.1953L43.6694 40.4104L42.5518 41.1953L42.9798 39.9108L41.8379 39.1022H43.2414L43.6694 37.7939Z" fill="#1D428A"/>
<path d="M51.8512 42.5752L52.2791 43.8597H53.6827L52.5408 44.692L52.9451 45.9766L51.8512 45.1916L50.7572 45.9766L51.1852 44.692L50.0439 43.8597H51.4469L51.8512 42.5752Z" fill="#1D428A"/>
<path d="M48.3313 38.8877L48.7593 40.1722H50.1622L49.0209 41.0045L49.4252 42.2891L48.355 41.5041L47.2604 42.2891L47.6653 41.0045L46.5234 40.1722H47.927L48.3313 38.8877Z" fill="#1D428A"/>
<path d="M53.2057 47.0703L53.6106 48.3785H55.0135L53.8722 49.2108L54.3002 50.4954L53.2057 49.7104L52.1117 50.4954L52.516 49.2108L51.3984 48.3785H52.7777L53.2057 47.0703Z" fill="#1D428A"/>
<path d="M52.6125 51.8516L53.0405 53.1598H54.4204L53.3021 53.9921L53.7065 55.2766L52.6125 54.468L51.5186 55.2766L51.9229 53.9684L50.8047 53.1598H52.2082L52.6125 51.8516Z" fill="#1D428A"/>
<path d="M49.9719 55.6562L50.3762 56.9645H51.7797L50.6615 57.7968L51.0658 59.0813L49.9956 58.2964L48.878 59.0813L49.306 57.7968L48.1641 56.9645H49.5676L49.9719 55.6562Z" fill="#1D428A"/>
<path d="M45.8332 57.7969L46.2612 59.1051H47.6405L46.4992 59.9374L46.9272 61.2219L45.8332 60.437L44.7387 61.2219L45.143 59.9374L44.0254 59.1051H45.4046L45.8332 57.7969Z" fill="#1D428A"/>
<path d="M35.3199 42.1475L34.8919 43.4557H33.5127L34.6303 44.2643L34.226 45.5488L35.2962 44.7639L36.4138 45.5488L35.9859 44.2643L37.1278 43.4557H35.7242L35.3199 42.1475Z" fill="#1D428A"/>
<path d="M38.7444 38.8877L38.3164 40.1722H36.9365L38.0547 41.0045L37.6504 42.2891L38.7444 41.5041L39.8383 42.2891L39.434 41.0045L40.5522 40.1722H39.1723L38.7444 38.8877Z" fill="#1D428A"/>
<path d="M33.7034 46.5L33.299 47.8082H31.8955L33.0374 48.6168L32.6331 49.9251L33.7034 49.1165L34.7973 49.9251L34.393 48.6168L35.5349 47.8082H34.155L33.7034 46.5Z" fill="#1D428A"/>
<path d="M34.1541 51.2568L33.7262 52.5651H32.3232L33.4645 53.3973L33.0602 54.6819L34.1305 53.897L35.2244 54.6819L34.8201 53.3973L35.9383 52.5651H34.5584L34.1541 51.2568Z" fill="#1D428A"/>
<path d="M36.7707 55.1562L36.3664 56.4645H34.9629L36.1048 57.2968L35.6768 58.5813L36.7707 57.7727L37.889 58.5813L37.4604 57.2968L38.5786 56.4645H37.1987L36.7707 55.1562Z" fill="#1D428A"/>
<path d="M40.9088 57.6299L40.5045 58.9381H39.1016L40.2428 59.7704L39.8385 61.0549L40.9088 60.27L42.027 61.0549L41.599 59.7467L42.7403 58.9381H41.3374L40.9088 57.6299Z" fill="#1D428A"/>
</g>
<defs>
<clipPath id="clip0_1799_1125">
<rect width="137" height="137" fill="white"/>
</clipPath>
</defs>
</svg>
