<svg width="113" height="138" viewBox="0 0 113 138" fill="none" xmlns="http://www.w3.org/2000/svg">
<path d="M29.0616 74.5317H37.4699L34.9393 80.8991L29.0616 74.5317ZM19.0206 103.103L5.63271 122.94L27.5922 115.757L36.4903 137.145L43.1843 114.124L67.9193 120.491L51.9191 101.961L71.1031 86.042L53.96 87.1033L65.3071 74.3684H87.4299L112.736 29.5514V0H94.7769L86.2053 15.2655L84.5726 26.7759L71.6745 49.715H59.8376L71.4296 29.2249V0.0816727H52.8171L44.4904 15.2656L43.021 26.8576L22.7758 63.0213L25.8779 71.0214L21.9595 66.7764L23.5922 88.5727L0 89.6339L19.0206 103.103Z" fill="white"/>
<path d="M45.7151 27.9185L25.7961 63.3475L29.1431 71.5925H41.4701L35.8371 85.8785L25.3061 74.4495L26.5311 91.2665L8.16309 92.0825L22.7761 102.286L12.4081 117.715L29.1431 112.327L36.0001 128.899L41.3071 110.776L59.9191 115.511L47.8371 101.633L62.6131 89.3885L47.3481 90.3685L63.9191 71.5925H85.7151L109.797 28.8985V2.93848H96.2461L88.4091 16.7345L87.1031 27.9185L73.1441 52.8165H54.8581L68.4911 28.7345V3.02048H54.3681L46.8581 16.7345L45.7151 27.9185Z" fill="black"/>
<path d="M104.736 6.77539H98.3687L93.4707 15.3464H100.083L104.736 6.77539Z" fill="#FB9C1A"/>
<path d="M63.511 6.77539H56.735L51.9189 15.3464H59.103L63.511 6.77539Z" fill="#FB9C1A"/>
<path d="M50.6956 61.4694L36.4906 93.8784L30.1236 87.0214L30.7766 95.6744L21.2256 96.0824L28.8176 101.47L23.5106 109.47L32.1646 106.613L35.7566 115.184L38.4496 105.797L48.1646 108.327L41.8786 101.062L49.5526 94.6944L38.7766 95.4294H38.0416L60.4096 61.6334H79.8386L97.0636 30.8574H90.3696L75.9196 56.2454H41.1436L55.6746 30.8574H48.8996L31.3476 61.6334H50.6956V61.4694Z" fill="#2BD1C5"/>
<path d="M57.3071 18.8574H51.0211L50.2051 26.2854H56.6541L57.3071 18.8574Z" fill="#EB515B"/>
<path d="M98.6948 18.8574H92.4908L91.6748 26.2854H98.0418L98.6948 18.8574Z" fill="#EB515B"/>
<path d="M33.4699 103.511C34.2096 103.529 34.9262 103.253 35.462 102.742C35.9979 102.232 36.309 101.53 36.3271 100.79C36.3282 100.745 36.3282 100.699 36.3271 100.654C36.3294 100.281 36.2583 99.9116 36.1178 99.5662C35.9772 99.2208 35.7701 98.9065 35.5081 98.6412C35.2461 98.3758 34.9343 98.1647 34.5908 98.0199C34.2472 97.875 33.8784 97.7993 33.5055 97.7969C33.4937 97.7969 33.4818 97.7969 33.4699 97.7969C32.7265 97.8185 32.0207 98.1289 31.5025 98.6624C30.9842 99.1959 30.6943 99.9104 30.6943 100.654C30.6943 101.398 30.9842 102.112 31.5025 102.646C32.0207 103.179 32.7265 103.49 33.4699 103.511Z" fill="black"/>
</svg>
