<svg width="246" height="142" viewBox="0 0 246 142" fill="none" xmlns="http://www.w3.org/2000/svg">
<path d="M12.5996 141.361C27.7367 128.005 43.9519 115.924 61.0796 105.241C64.4396 103.561 67.7996 101.881 71.1596 100.201C72.4796 99.6006 75.2396 98.2806 78.5996 96.6006C80.9996 99.2406 83.2796 101.761 85.7996 104.161C60.2396 116.041 35.7596 128.521 12.5996 141.361ZM194.88 50.2806C211.522 46.5542 228.402 43.988 245.4 42.6006C227.28 48.1206 208.8 54.2406 190.2 61.0806C191.88 57.6006 193.32 54.0006 194.88 50.2806Z" fill="#007AC1"/>
<path d="M0 90.8397C17.624 79.7819 36.1262 70.1897 55.32 62.1598C55.92 63.4798 56.64 64.7997 57.36 66.1197C56.28 68.2797 55.2 70.5598 54.12 72.7198C35.52 78.4798 17.4 84.4797 0 90.8397ZM201.96 29.0397C216.4 28.452 230.862 28.6523 245.28 29.6398C230.28 31.7998 215.04 34.1997 199.56 37.0797C200.4 34.4397 201.24 31.7997 201.96 29.0397Z" fill="#F05133"/>
<path d="M122.64 5.16016C150.84 5.16016 172.92 11.7602 198 24.2402C185.76 70.2002 163.32 101.28 122.64 126.36C107.4 116.88 94.3195 106.32 83.5195 94.3202C88.3195 92.0402 93.7195 89.4002 98.5195 87.2402C100.56 87.3602 102.36 87.4802 104.16 87.4802C104.17 89.7161 103.309 91.8681 101.76 93.4802C102.6 94.4402 103.32 95.2802 104.16 96.1202C106.32 94.2002 107.64 91.4402 107.76 87.4802C112.522 87.4757 117.27 86.9526 121.92 85.9202C121.8 93.2402 120.72 98.5202 118.68 100.68C118.664 100.68 118.648 100.683 118.633 100.689C118.618 100.694 118.605 100.703 118.594 100.715C118.583 100.726 118.574 100.739 118.568 100.754C118.562 100.769 118.559 100.784 118.56 100.8C118.113 101.275 117.632 101.716 117.12 102.12C119.16 101.76 121.2 101.28 123 100.8C125.52 95.6401 125.52 86.6401 125.52 85.0801C130.2 83.8801 134.28 82.6801 138 81.4801C138.12 85.6801 139.92 89.6401 143.16 91.2001C144.6 90.1201 145.92 89.0401 147.36 87.9601C146.52 88.0801 141.48 88.4401 141.6 80.2801C152.4 76.0801 159.48 71.2801 165.72 63.8401C167.375 60.0941 168.661 56.1957 169.56 52.2002C162.12 63.9602 155.4 70.8002 141.96 76.2002C142.452 73.3074 143.175 70.4584 144.12 67.6802C148.08 66.0002 152.16 64.0802 154.56 63.0002L160.44 56.8802C162 51.2402 163.32 45.6002 164.76 39.8402L160.2 41.2802L165.6 35.6402C166.8 31.2002 167.88 26.7602 168.96 22.3202C166.32 22.6802 163.56 23.1602 160.92 23.5202C161.4 21.2402 161.64 19.0802 161.88 16.9202C160.56 16.6802 159.24 16.2002 157.92 16.0802C157.622 18.8293 157.141 21.5554 156.48 24.2402L156.12 24.3602C153.454 24.7596 150.934 25.8335 148.8 27.4802L149.52 25.3202C145.2 26.0402 140.88 26.8803 136.56 27.7202L132.24 32.2802L132.36 31.8002L133.8 28.2002C129.6 29.1602 125.28 30.0002 120.96 30.9602C120.12 25.2002 119.16 20.0402 118.44 15.8402L114.84 16.2002C115.56 20.5202 116.52 25.8002 117.48 31.6802L114.48 32.4002L110.64 36.4802C108 33.6002 102.48 35.4002 98.9995 36.2402C95.2795 37.2002 91.5595 38.2802 87.8395 39.2402C86.7395 39.4883 85.6572 39.809 84.5995 40.2002C81.718 36.2048 79.1503 31.9922 76.9195 27.6002L76.5595 26.7602C75.4795 27.2402 74.3995 27.6002 73.1995 28.2002L73.6795 29.1602C75.8146 33.4917 78.261 37.6626 80.9995 41.6402C76.8522 43.4446 73.1315 46.1023 70.0795 49.4402C70.0795 49.4402 64.7995 54.8402 64.1995 55.5602C62.8936 57.0919 61.7289 58.7386 60.7195 60.4802C55.0307 48.9093 50.6052 36.7592 47.5195 24.2402C72.3595 11.7602 94.4395 5.16016 122.64 5.16016ZM125.4 74.8801C128.04 73.8001 130.56 72.6002 133.2 71.5202L134.4 70.2002C134.994 70.2998 135.597 70.34 136.2 70.3202C137.429 70.1252 138.636 69.8035 139.8 69.3602C139.021 72.0713 138.46 74.84 138.12 77.6402C134.52 78.9602 130.32 80.2802 125.64 81.4802C125.52 79.2002 125.52 77.1601 125.4 74.8801ZM107.4 83.0402L109.92 81.8402L116.16 76.8002L117.6 73.0802C118.44 74.8802 118.92 75.6002 119.88 77.4002L121.92 76.4402V82.2002C117.203 83.3258 112.369 83.8898 107.52 83.8802L107.4 83.0402Z" fill="white"/>
<path d="M137.88 14.64C143.774 14.5943 149.665 14.9149 155.52 15.6C159.938 16.4796 164.305 17.6013 168.6 18.96C170.301 24.8897 171.149 31.0313 171.12 37.2C171.115 42.2863 170.551 47.3567 169.44 52.32C162 64.08 155.16 70.8 141.84 76.2C142.333 73.3072 143.055 70.4582 144 67.68C147.96 66.0001 151.92 64.08 154.44 63.1201L160.32 57.0001C161.76 51.2401 163.2 45.6001 164.64 39.9601L160.08 41.4001L165.48 35.7601C166.56 31.3201 167.76 26.8801 168.84 22.4401C166.2 22.8001 163.44 23.2801 160.8 23.6401C161.16 21.3601 161.52 19.2001 161.76 17.0401C160.44 16.6801 159.12 16.3201 157.8 16.0801C157.503 18.8689 157.022 21.6349 156.36 24.3601L156 24.4801C153.268 24.7697 150.681 25.8545 148.56 27.6001L149.4 25.4401C144.96 26.1601 140.76 27.0001 136.32 27.8401L132.12 32.2801L132.24 31.9201L133.68 28.3201C129.36 29.2801 125.16 30.1201 120.84 31.0801C120 25.2001 119.04 20.0401 118.32 15.8401C124.806 15.0073 131.34 14.6064 137.88 14.64ZM165.6 63.96C161.437 73.2849 155.198 81.535 147.36 88.08C146.52 88.2 141.36 88.56 141.48 80.4C152.28 76.2 159.36 71.28 165.6 63.96ZM143.04 91.32C136.966 95.6569 130.186 98.9052 123 100.92C125.4 95.76 125.52 86.76 125.52 85.2C130.08 84 134.16 82.8 138 81.6C138.12 85.8 139.8 89.8801 143.04 91.32ZM117.12 102.24C115.08 102.6 112.92 102.84 110.88 103.08C108.6 100.8 106.32 98.4 104.16 96.12C106.32 94.2 107.64 91.44 107.76 87.48C112.522 87.4755 117.27 86.9525 121.92 85.92C121.8 93.24 120.72 98.52 118.68 100.68C118.664 100.68 118.648 100.683 118.633 100.688C118.619 100.694 118.605 100.703 118.594 100.714C118.583 100.726 118.574 100.739 118.568 100.754C118.562 100.768 118.559 100.784 118.56 100.8C117.96 101.4 117.48 101.88 117.12 102.24ZM101.76 93.48C100.2 91.68 98.6398 89.76 97.1998 87.84L98.5198 87.24C100.56 87.36 102.36 87.48 104.16 87.48C104.115 89.7051 103.262 91.8377 101.76 93.48ZM73.1998 46.2C71.131 41.0563 69.3286 35.8093 67.7998 30.48C69.4798 29.64 71.1598 28.92 72.9598 28.2L73.3198 29.16C75.4961 33.4938 77.9825 37.6646 80.7598 41.64C78.0302 42.7817 75.483 44.3181 73.1998 46.2ZM76.1998 26.76C88.5104 21.6556 101.41 18.1082 114.6 16.2C115.32 20.52 116.28 25.8 117.12 31.68L114.12 32.4L110.4 36.48C107.64 33.6 102.12 35.4 98.7598 36.24C95.0398 37.2 91.3198 38.28 87.5998 39.24C86.4998 39.4882 85.4174 39.8089 84.3598 40.2C81.5171 36.2023 78.9895 31.9896 76.7998 27.6L76.1998 26.76ZM125.4 74.8801C128.04 73.8 130.56 72.6001 133.2 71.5201L134.4 70.2001C134.994 70.2997 135.597 70.3399 136.2 70.3201C137.427 70.1104 138.632 69.7891 139.8 69.3601C138.964 72.0569 138.401 74.8308 138.12 77.6401C134.4 78.9601 130.32 80.2801 125.52 81.4801C125.52 79.2 125.52 77.16 125.4 74.8801ZM107.4 83.0401L109.92 81.8401L116.16 76.8001L117.6 73.0801C118.44 74.8801 118.92 75.6001 119.88 77.4001L121.92 76.5601V82.3201C117.193 83.3869 112.366 83.95 107.52 84L107.4 83.0401Z" fill="#F05133"/>
<path d="M123.96 118.68C112.073 110.699 101.334 101.131 92.0396 90.2401L97.1996 87.8401C98.7596 89.7601 100.32 91.6801 101.88 93.4801C102.616 94.416 103.418 95.2982 104.28 96.1201C111.138 103.697 118.736 110.571 126.96 116.64C125.997 117.374 124.996 118.055 123.96 118.68ZM67.3196 51.8401C63.8112 44.1085 60.8831 36.1264 58.5596 27.9601C79.0609 18.1827 101.376 12.7878 124.08 12.1201C134.644 12.2099 145.175 13.3353 155.52 15.4801C149.66 14.858 143.772 14.5375 137.88 14.5201C131.3 14.4903 124.726 14.8911 118.2 15.7201C117 15.8401 115.8 16.0801 114.6 16.2001C101.415 18.0669 88.5147 21.5741 76.1996 26.6401C75.1196 27.1201 73.9196 27.6001 72.8396 28.0801C71.1596 28.8001 69.4796 29.6401 67.7996 30.4801C69.2523 35.8184 71.0153 41.0673 73.0796 46.2001C71.9996 47.1601 70.7996 48.2401 69.7196 49.3201L67.3196 51.8401Z" fill="#FDBB30"/>
<path d="M41.3996 21.48C68.3996 7.68 92.0397 0 122.76 0C153.36 0 177.12 7.67993 204.12 21.48C191.52 72 167.52 105.6 122.64 132.48C105.72 122.28 90.9597 110.4 78.7197 96.6C75.3597 98.28 72.5997 99.6 71.1597 100.32C66.9597 102.48 62.7596 104.52 58.5596 106.68C53.7596 109.08 48.4797 112.8 42.9597 111.36C36.9597 108.72 40.9196 101.4 42.7196 97.3201C47.3996 86.8801 52.3197 76.44 57.3597 66.12C51.0616 54.3375 46.3027 41.7949 43.1997 28.8L41.3996 21.48ZM122.64 5.16C94.4396 5.16 72.3597 11.76 47.2797 24.24C50.2912 36.7264 54.678 48.8405 60.3597 60.36C61.4114 58.6165 62.6162 56.97 63.9597 55.44C64.5597 54.84 69.7196 49.32 69.7196 49.32C72.8247 45.9892 76.5829 43.334 80.7597 41.52C77.9566 37.5613 75.4689 33.3885 73.3196 29.04L72.9597 28.08C74.0397 27.6 75.1196 27.12 76.3196 26.64L76.6796 27.48C78.8688 31.9081 81.3963 36.1607 84.2397 40.2C85.3197 39.84 86.3997 39.48 87.5997 39.12C91.3197 38.16 94.9197 37.2 98.7597 36.24C102.12 35.28 107.64 33.48 110.28 36.36L114.12 32.28L117.12 31.68C116.16 25.68 115.32 20.4 114.48 16.2C115.68 16.08 116.88 15.84 118.08 15.72C118.8 19.92 119.76 25.2 120.6 30.84C124.92 30 129.12 29.04 133.44 28.2L132 31.8L131.88 32.16L136.2 27.6C140.52 26.88 144.72 26.04 149.16 25.2L148.44 27.48C150.55 25.7718 153.076 24.6538 155.76 24.24H156.12C156.817 21.5164 157.338 18.7506 157.68 15.96C159 16.2 160.32 16.56 161.52 16.8C161.385 19.023 161.064 21.2308 160.56 23.4C163.32 23.04 165.96 22.68 168.72 22.2C167.52 26.64 166.44 31.2 165.36 35.64L159.96 41.28L164.52 39.84C162.96 45.48 161.52 51.12 160.2 56.88L154.32 63C151.8 64.08 147.72 66 143.88 67.5599C142.949 70.3423 142.227 73.1902 141.72 76.0799C155.04 70.6799 161.88 63.8399 169.32 52.1999C168.362 56.1938 167.036 60.0905 165.36 63.8399C159.12 71.1599 152.16 76.0799 141.24 80.1599C141.12 88.4399 146.4 88.0799 147.12 87.8399C145.784 89.052 144.337 90.1367 142.8 91.0799C139.56 89.6399 137.88 85.5599 137.76 81.3599C134.04 82.6799 129.96 83.7599 125.28 84.9599C125.16 86.5199 125.16 95.5199 122.76 100.68C120.824 101.221 118.861 101.662 116.88 102C117.349 101.591 117.79 101.15 118.2 100.68L118.32 100.56C120.48 98.4 121.44 93.12 121.68 85.8C117.023 86.8012 112.282 87.3637 107.52 87.48C107.4 91.44 106.08 94.2 103.92 96C103.08 95.1599 102.36 94.3199 101.52 93.48C102.963 91.811 103.77 89.6861 103.8 87.48C102.12 87.36 100.2 87.24 98.2797 87.12C93.4797 89.4 87.9597 92.04 83.1597 94.2C94.6363 106.706 107.852 117.496 122.4 126.24C163.08 101.16 185.4 70.2 197.64 24.12C172.92 11.76 150.84 5.16 122.64 5.16ZM125.4 74.88C125.52 77.1599 125.52 79.2 125.52 81.36C130.32 80.1599 134.4 78.96 138.12 77.64C138.411 74.7929 138.974 71.9802 139.8 69.24C138.631 69.669 137.426 69.9903 136.2 70.2C135.606 70.3212 134.994 70.3212 134.4 70.2L133.2 71.4C130.56 72.6 128.04 73.7999 125.4 74.88ZM107.4 83.04L107.52 83.88C112.369 83.8896 117.203 83.3257 121.92 82.2V76.44L119.88 77.4C118.92 75.6 118.56 74.88 117.6 73.08L116.16 76.8L109.92 81.84L107.4 83.04Z" fill="#002D62"/>
<path d="M87.9601 41.28C81.6001 43.08 75.9601 45.7199 71.4001 50.7599C68.9201 53.7685 66.824 57.0739 65.1601 60.5999C60.1201 71.0399 55.2001 81.48 50.5201 91.92C49.3201 94.6799 45.6001 101.28 49.5601 103.08C54.0001 104.16 59.5201 100.44 63.3601 98.52C67.5601 96.36 71.8801 94.1999 76.0801 92.16C83.2801 88.56 89.7601 84.24 94.2001 77.28C95.8103 74.2414 97.2524 71.1167 98.5201 67.92C101.28 61.08 104.04 54.36 106.92 47.64C108 45 109.92 41.8801 109.32 39.12C108.12 35.4 101.76 37.68 99.1201 38.4C95.4001 39.36 91.6801 40.32 87.9601 41.28ZM79.9201 80.0399C76.5601 81.5999 73.3201 83.0399 69.9601 84.5999C74.7601 73.4399 79.8001 62.2799 85.0801 51.1199C87.9601 50.2799 90.9601 49.2 93.9601 48.36C89.0401 58.92 84.3601 69.4799 79.9201 80.0399ZM137.4 29.64C132.72 35.76 128.16 41.88 123.6 48C125.76 42.48 127.92 36.84 130.08 31.2C125.28 32.16 120.36 33.24 115.68 34.32C114.36 37.2 113.16 40.08 111.96 43.08C112.944 42.7445 113.945 42.4641 114.96 42.2399C111.24 51.3599 107.52 60.48 103.92 69.72C102.36 73.44 100.92 77.28 99.4801 81C104.28 78.72 109.2 76.4399 114 74.28C116.16 68.16 118.32 62.1599 120.6 56.0399C122.64 60.2399 124.68 64.3199 126.72 68.3999C129.84 67.0799 132.96 65.6399 136.08 64.3199C134.16 60 132.24 55.68 130.32 51.36C133.8 46.08 137.28 40.8 140.76 35.64C141.72 35.4 142.8 35.2799 143.76 35.0399C144.6 32.7599 145.32 30.48 146.04 28.2C143.16 28.68 140.28 29.16 137.4 29.64ZM156.12 26.52C153.525 26.8684 151.097 27.9985 149.16 29.76C147.705 31.4701 146.641 33.4766 146.04 35.64C144 42.12 141.96 48.6 139.8 55.08C138.96 57.6 137.64 62.28 141.72 62.04C143.137 61.7409 144.509 61.2568 145.8 60.5999C150 58.7999 154.2 57.12 158.4 55.44C159.36 51.36 160.44 47.28 161.52 43.2C159.36 43.8 157.2 44.52 154.92 45.2399C154.32 47.1599 153.84 48.9599 153.36 50.8799C151.8 51.3599 150.24 51.96 148.8 52.4399C150.72 45.8399 152.52 39.3599 154.56 32.76C155.88 32.4 157.2 32.16 158.52 31.8C158.272 32.9785 157.951 34.1407 157.56 35.28C159.6 34.8 161.52 34.32 163.56 33.84C164.28 30.96 165 27.96 165.72 24.96C162.6 25.44 159.36 26.0399 156.12 26.52Z" fill="white"/>
<path d="M173.64 20.4007C175.56 21.1207 177.48 21.7207 179.4 22.4407C183.96 24.2407 188.04 25.9207 191.52 27.6007C181.384 62.9972 159.451 93.8644 129.36 115.081L126.96 116.761C122.018 113.073 117.29 109.107 112.8 104.881L117 104.281C134.654 101.287 150.406 91.4284 160.816 76.8589C171.226 62.2894 175.448 44.1926 172.56 26.5207C172.44 26.0407 172.32 25.5607 172.2 25.0807L172.08 24.6007L171.96 24.4807L171.48 22.8007L171.36 22.5607L171.24 22.0807L171.12 21.9607V21.7207C170.992 21.0215 170.791 20.3377 170.52 19.6807C171.571 19.8673 172.613 20.1076 173.64 20.4007Z" fill="#007AC1"/>
</svg>
